{"glyphs":{"0":{"ha":836,"x_min":0,"x_max":0,"o":"m 667 481 b 415 3 667 86 542 3 b 163 481 293 3 163 86 b 415 975 163 876 290 975 b 667 481 535 975 667 876 z m 782 481 b 415 990 782 701 721 990 b 47 481 108 990 47 701 b 415 -12 47 261 108 -12 b 782 481 721 -12 782 261 z "},"1":{"ha":507,"x_min":0,"x_max":0,"o":"m 407 14 b 303 122 358 14 303 15 l 303 990 l 258 990 l 72 829 l 81 817 b 210 814 158 878 210 904 l 210 122 b 103 14 210 19 160 14 l 103 0 l 407 0 l 407 14 z "},"2":{"ha":647,"x_min":0,"x_max":0,"o":"m 583 172 b 453 93 553 117 500 93 l 147 93 b 381 442 147 93 315 351 b 549 758 489 592 549 667 b 310 990 549 885 449 990 b 57 729 310 990 63 1001 l 76 725 b 356 461 107 1040 675 924 l 54 0 l 550 0 l 597 172 z "},"3":{"ha":688,"x_min":0,"x_max":0,"o":"m 71 71 b 296 -12 100 33 178 -12 b 614 278 422 -12 618 38 b 376 528 613 385 531 499 b 319 990 654 638 557 990 b 60 765 285 990 68 990 l 79 764 b 378 879 88 903 276 967 b 240 508 518 757 443 526 l 240 490 b 508 257 440 483 501 356 b 296 3 522 75 438 3 b 143 50 185 3 135 49 b 178 78 158 53 171 63 b 153 163 194 108 183 146 b 68 138 124 179 83 168 b 71 71 57 117 58 88 z "},"4":{"ha":724,"x_min":0,"x_max":0,"o":"m 436 349 l 142 349 b 124 397 100 349 89 350 l 436 860 z m 671 289 l 671 349 l 542 349 l 542 978 l 496 982 l 42 307 l 42 289 l 436 289 l 436 144 b 339 15 436 21 397 15 l 339 0 l 639 0 l 639 15 b 542 151 581 15 542 18 l 542 289 z "},"5":{"ha":743,"x_min":0,"x_max":0,"o":"m 669 354 b 113 583 646 538 428 672 l 156 876 l 606 876 l 631 978 l 150 978 l 76 482 b 576 329 363 557 533 468 b 314 3 636 135 479 3 b 153 61 194 3 138 57 b 192 92 168 65 183 74 b 160 178 206 124 192 164 b 74 146 126 193 88 178 b 83 75 63 122 69 93 b 314 -12 97 57 171 -12 b 669 354 486 -12 706 86 z "},"6":{"ha":732,"x_min":0,"x_max":0,"o":"m 564 281 b 371 3 564 65 475 3 b 168 363 238 3 168 106 b 388 556 168 451 244 556 b 564 281 469 556 564 501 z m 668 303 b 408 597 668 440 606 597 b 168 419 278 597 203 529 b 439 974 169 814 278 985 b 529 942 521 968 540 940 b 486 922 513 943 497 933 b 488 832 461 897 463 856 b 579 833 513 807 554 808 b 592 901 596 851 600 882 b 408 990 585 919 563 990 b 58 442 189 990 58 728 b 371 -12 58 165 136 -12 b 668 303 564 -12 668 88 z "},"7":{"ha":763,"x_min":0,"x_max":0,"o":"m 88 978 l 64 806 l 79 806 b 196 886 103 863 121 886 l 640 886 b 283 0 390 528 308 282 l 401 0 b 658 886 401 235 465 542 l 714 978 z "},"8":{"ha":739,"x_min":0,"x_max":0,"o":"m 549 764 b 408 560 551 650 454 571 b 186 814 265 618 186 675 b 364 975 186 915 276 975 b 549 764 451 975 544 935 z m 378 -12 b 688 254 554 -12 688 67 b 428 549 688 397 567 479 b 618 767 528 575 618 686 b 364 990 618 899 531 990 b 107 757 228 990 107 910 b 294 497 107 642 150 581 b 51 226 163 451 51 346 b 378 -12 51 58 172 -12 z m 358 463 b 594 213 535 369 593 313 b 378 3 599 42 453 3 b 136 229 258 3 136 57 b 311 488 136 397 256 464 b 358 463 332 475 335 475 z "},"9":{"ha":714,"x_min":0,"x_max":0,"o":"m 157 703 b 349 975 157 900 244 975 b 546 618 482 975 546 874 b 333 426 546 528 476 426 b 157 703 251 426 157 482 z m 51 681 b 311 385 51 543 114 385 b 546 560 442 385 508 449 b 290 4 544 122 471 -8 b 188 47 208 8 178 49 b 232 67 204 46 219 54 b 231 157 256 90 256 132 b 139 154 204 181 164 181 b 125 86 122 138 117 107 b 322 -12 133 69 161 -12 b 656 557 556 -12 656 200 b 349 990 656 833 583 990 b 51 681 156 990 51 883 z "}," ":{"ha":336,"x_min":0,"x_max":0,"o":""},"!":{"ha":396,"x_min":0,"x_max":0,"o":"m 221 238 l 244 1035 l 142 1035 l 165 238 z m 263 58 b 192 -12 263 19 231 -12 b 121 58 153 -12 121 19 b 192 128 121 97 153 128 b 263 58 231 128 263 97 z "},"\"":{"ha":617,"x_min":0,"x_max":0,"o":"m 414 522 l 467 522 l 494 978 l 385 978 z m 168 522 l 222 522 l 247 978 l 140 978 z "},"#":{"ha":961,"x_min":0,"x_max":0,"o":"m 618 675 l 557 407 l 319 407 l 379 675 z m 892 675 l 892 736 l 700 736 l 769 1036 l 701 1036 l 632 736 l 393 736 l 463 1036 l 394 1036 l 325 736 l 135 736 l 135 675 l 311 675 l 251 407 l 47 407 l 47 344 l 236 344 l 158 0 l 226 0 l 304 344 l 543 344 l 465 0 l 533 0 l 611 344 l 804 344 l 804 407 l 625 407 l 686 675 z "},"$":{"ha":711,"x_min":0,"x_max":0,"o":"m 374 3 l 374 426 l 467 365 b 374 3 617 261 615 15 z m 326 586 l 257 632 b 326 975 36 776 178 972 z m 494 476 l 374 556 l 374 974 b 613 693 568 963 606 847 l 625 693 l 625 926 b 374 990 625 926 531 982 l 374 1160 l 326 1160 l 326 990 b 79 882 149 989 79 882 b 229 522 -24 711 129 592 l 326 457 l 326 3 b 71 329 128 18 78 128 l 60 329 l 60 63 b 326 -12 60 63 149 -3 l 326 -182 l 374 -182 l 374 -12 b 633 101 563 -6 618 85 b 494 476 690 197 682 353 z "},"%":{"ha":1332,"x_min":0,"x_max":0,"o":"m 961 50 b 850 279 901 50 850 82 b 961 518 850 476 900 518 b 1074 279 1021 518 1074 476 b 961 50 1074 82 1025 50 z m 961 533 b 779 279 808 533 779 389 b 961 35 779 169 808 35 b 1144 279 1114 35 1144 169 b 961 533 1144 389 1114 533 z m 267 688 b 378 928 267 885 317 928 b 490 688 438 928 490 885 b 378 458 490 492 442 458 b 267 688 318 458 267 492 z m 561 688 b 378 943 561 797 531 943 b 196 688 225 943 196 797 b 378 443 196 578 225 443 b 561 688 531 443 561 578 z m 1018 978 l 953 978 l 319 0 l 385 0 z "},"&":{"ha":1061,"x_min":0,"x_max":0,"o":"m 389 1004 b 558 964 449 1026 518 1007 b 456 597 635 869 643 711 l 358 739 b 389 1004 292 838 290 967 z m 235 119 b 293 485 107 267 208 431 l 378 536 l 614 199 b 235 119 539 19 332 6 z m 972 121 b 890 56 969 74 929 56 b 785 122 890 56 829 57 l 675 279 b 811 406 715 417 811 438 b 833 365 813 389 817 379 b 919 372 860 343 897 347 b 913 457 946 401 933 440 b 833 471 892 474 861 476 b 664 293 799 463 717 439 l 465 585 b 572 974 683 724 638 900 b 374 1029 532 1019 463 1044 b 303 644 218 1003 160 836 l 368 550 l 282 497 b 154 75 169 435 4 253 b 625 183 307 -107 581 28 l 710 57 b 863 -12 763 -21 863 -12 b 986 121 914 -10 983 29 z "},"'":{"ha":313,"x_min":0,"x_max":0,"o":"m 133 522 l 186 522 l 213 978 l 104 978 z "},"(":{"ha":436,"x_min":0,"x_max":0,"o":"m 421 1035 b 110 353 338 978 110 688 b 418 -286 110 18 336 -240 l 432 -269 b 210 349 200 -60 210 311 b 436 1021 210 385 199 740 z "},")":{"ha":436,"x_min":0,"x_max":0,"o":"m -3 1021 b 224 349 235 740 224 385 b 1 -269 224 311 233 -60 l 15 -286 b 324 353 97 -240 324 18 b 13 1035 324 688 96 978 z "},"*":{"ha":757,"x_min":0,"x_max":0,"o":"m 658 738 l 631 825 l 390 715 l 419 978 l 328 978 l 357 715 l 118 825 l 89 738 l 346 683 l 169 490 l 243 435 l 374 664 l 504 435 l 578 490 l 401 683 z "},"+":{"ha":993,"x_min":0,"x_max":0,"o":"m 913 469 l 533 469 l 533 860 l 457 860 l 457 469 l 78 469 l 78 393 l 457 393 l 457 0 l 533 0 l 533 393 l 913 393 z "},",":{"ha":289,"x_min":0,"x_max":0,"o":"m 96 -172 b 188 -83 154 -142 172 -110 b 193 99 222 -25 232 60 b 101 99 168 125 128 125 b 103 8 76 74 78 33 b 147 -11 117 -4 132 -8 b 89 -164 169 -15 189 -96 l 96 -172 z "},"-":{"ha":617,"x_min":0,"x_max":0,"o":"m 526 315 l 526 392 l 89 392 l 89 315 z "},".":{"ha":281,"x_min":0,"x_max":0,"o":"m 140 -7 b 204 57 175 -7 204 22 b 140 122 204 94 175 122 b 76 57 104 122 76 94 b 140 -7 76 22 104 -7 z "},"/":{"ha":567,"x_min":0,"x_max":0,"o":"m 532 1007 l 447 1007 l 19 -29 l 104 -29 z "},":":{"ha":274,"x_min":0,"x_max":0,"o":"m 140 436 b 206 500 175 436 206 465 b 140 567 206 538 175 567 b 75 500 103 567 75 538 b 140 436 75 465 103 436 z m 140 76 b 206 140 175 76 206 106 b 140 207 206 178 175 207 b 75 140 103 207 75 178 b 140 76 75 106 103 76 z "},";":{"ha":279,"x_min":0,"x_max":0,"o":"m 140 435 b 206 499 175 435 206 464 b 140 565 206 536 175 565 b 75 499 103 565 75 536 b 140 435 75 464 103 435 z m 89 -85 l 82 -76 b 140 76 182 -8 163 72 b 96 96 125 79 110 83 b 94 186 71 121 69 161 b 186 186 121 213 161 213 b 181 4 225 147 215 63 b 89 -85 165 -22 147 -54 z "},"<":{"ha":833,"x_min":0,"x_max":0,"o":"m 165 369 l 768 679 l 768 760 l 64 399 l 64 339 l 768 -22 l 768 56 z "},"=":{"ha":851,"x_min":0,"x_max":0,"o":"m 788 490 l 788 564 l 78 564 l 78 490 z m 788 178 l 788 251 l 78 251 l 78 178 z "},">":{"ha":833,"x_min":0,"x_max":0,"o":"m 65 56 l 65 -22 l 769 339 l 769 399 l 65 760 l 65 679 l 668 369 z "},"?":{"ha":786,"x_min":0,"x_max":0,"o":"m 438 67 b 364 139 438 107 404 139 b 290 67 324 139 290 107 b 364 -7 290 25 324 -7 b 438 67 404 -7 438 25 z m 453 447 b 669 769 528 485 679 568 b 217 982 658 985 439 1081 b 113 872 151 954 119 896 b 119 807 107 851 106 828 b 207 790 140 779 179 771 b 222 878 235 810 242 850 b 183 903 213 893 200 903 b 226 971 165 906 160 946 b 547 764 346 1018 526 1003 b 414 474 563 585 474 525 b 342 257 325 400 333 311 l 365 261 b 453 447 358 344 383 415 z "},"@":{"ha":1190,"x_min":0,"x_max":0,"o":"m 722 96 b 613 38 722 96 688 31 b 499 271 542 46 471 100 b 697 508 524 422 608 508 b 783 364 793 508 789 386 b 722 96 779 340 731 131 z m 725 826 b 54 244 396 839 79 636 b 572 -292 29 -168 369 -292 b 900 -196 801 -292 900 -196 l 892 -185 b 583 -264 863 -207 740 -278 b 164 265 83 -221 164 265 b 738 778 201 574 414 804 b 1088 333 1057 753 1111 500 b 847 22 1051 76 907 22 b 804 96 796 22 799 68 b 896 511 815 146 896 511 l 819 511 b 808 475 819 511 810 481 b 681 526 808 475 782 525 b 392 207 507 528 401 361 b 558 -12 385 85 451 -12 b 717 67 651 -12 704 44 b 800 -12 710 14 739 -12 b 1118 331 889 -12 1078 43 b 725 826 1161 638 964 817 z "},"A":{"ha":936,"x_min":0,"x_max":0,"o":"m 243 324 l 419 811 l 608 324 z m 917 15 b 804 135 876 18 849 24 b 467 978 804 135 551 774 l 457 978 l 228 346 b 19 15 115 31 81 15 l 19 0 l 314 0 l 314 15 b 239 308 133 13 181 142 l 614 308 l 664 176 b 640 15 714 60 699 15 l 640 0 l 917 0 z "},"B":{"ha":778,"x_min":0,"x_max":0,"o":"m 310 963 b 519 740 404 963 519 943 b 343 503 519 528 433 503 l 244 503 l 244 963 z m 713 249 b 424 501 713 482 514 501 b 647 739 451 501 647 519 b 299 978 647 957 492 978 l 51 978 l 51 965 b 132 828 113 965 132 914 l 132 154 b 51 13 132 60 111 13 l 51 0 l 299 0 b 713 249 539 0 713 8 z m 582 254 b 310 15 582 13 449 15 l 244 15 l 244 488 l 343 488 b 582 254 451 488 582 482 z "},"C":{"ha":917,"x_min":0,"x_max":0,"o":"m 829 286 b 538 3 821 44 622 3 b 197 489 401 3 197 40 b 538 975 197 928 397 975 b 829 693 626 975 810 943 l 844 693 l 858 906 b 538 990 771 976 681 990 b 56 489 254 990 56 819 b 538 -12 56 164 254 -12 b 858 74 686 -12 756 6 l 844 286 z "},"D":{"ha":931,"x_min":0,"x_max":0,"o":"m 731 488 b 325 15 731 13 481 15 l 264 15 l 264 963 l 325 963 b 731 488 486 963 731 944 z m 861 488 b 325 978 861 894 601 978 l 60 978 l 60 963 b 149 828 121 963 149 914 l 149 153 b 60 15 149 58 119 15 l 60 0 l 325 0 b 861 488 601 0 861 60 z "},"E":{"ha":803,"x_min":0,"x_max":0,"o":"m 683 282 b 299 15 669 6 485 15 l 228 15 l 228 486 l 339 486 b 515 347 392 486 511 485 l 531 347 l 531 639 l 515 639 b 339 501 511 503 394 501 l 228 501 l 228 963 l 317 963 b 665 735 486 963 658 960 l 681 735 l 681 978 l 43 978 l 43 963 b 114 851 104 963 114 938 l 114 149 b 43 15 114 54 101 15 l 43 0 l 699 0 l 699 282 z "},"F":{"ha":704,"x_min":0,"x_max":0,"o":"m 42 978 l 42 963 b 113 851 103 963 113 938 l 113 149 b 42 15 113 54 100 15 l 42 0 l 325 0 l 325 15 b 226 157 263 15 226 31 l 226 486 l 336 486 b 515 347 392 486 510 486 l 531 347 l 531 639 l 515 639 b 336 501 510 501 392 501 l 226 501 l 226 963 l 314 963 b 667 735 478 963 656 967 l 682 735 l 682 978 z "},"G":{"ha":969,"x_min":0,"x_max":0,"o":"m 640 389 l 640 374 b 749 151 739 374 749 371 b 497 3 749 44 660 3 b 193 489 342 3 193 107 b 497 975 193 871 339 975 b 811 690 661 975 801 929 l 833 690 l 846 908 b 497 990 760 965 675 990 b 53 489 197 990 53 765 b 497 -12 53 213 197 -12 b 844 46 646 -12 758 13 b 935 374 844 367 851 374 l 935 389 z "},"H":{"ha":825,"x_min":0,"x_max":0,"o":"m 724 789 b 794 964 724 938 729 951 l 794 978 l 572 978 l 572 964 b 615 789 611 951 615 938 l 615 481 l 211 481 l 211 789 b 256 964 211 938 217 951 l 256 978 l 31 978 l 31 964 b 104 789 97 951 104 922 l 104 189 b 31 15 104 47 104 35 l 31 0 l 256 0 l 256 15 b 211 189 217 29 211 33 l 211 458 l 615 458 l 615 189 b 572 15 615 60 610 29 l 572 0 l 794 0 l 794 15 b 724 189 722 35 724 75 l 724 789 z "},"I":{"ha":406,"x_min":0,"x_max":0,"o":"m 68 978 l 68 964 b 156 861 129 964 156 947 l 156 139 b 68 15 156 44 128 15 l 68 0 l 354 0 l 354 15 b 268 139 296 15 268 44 l 268 861 b 354 964 268 947 294 964 l 354 978 z "},"J":{"ha":506,"x_min":0,"x_max":0,"o":"m 136 978 l 136 964 b 235 667 235 964 235 926 l 235 226 b 0 -218 235 -75 119 -175 l 4 -232 b 346 253 231 -199 346 -61 l 346 836 b 451 964 346 925 389 964 l 451 978 z "},"K":{"ha":943,"x_min":0,"x_max":0,"o":"m 922 15 b 746 86 913 15 807 8 b 415 531 746 86 497 421 b 888 964 715 915 782 964 l 888 978 l 543 978 l 543 964 b 489 676 731 963 608 815 l 322 474 b 483 251 322 474 404 365 b 808 0 631 42 661 0 l 922 0 z m 56 978 l 56 964 b 139 861 115 964 139 947 l 139 135 b 56 15 139 40 114 15 l 56 0 l 339 0 l 339 15 b 250 135 279 15 250 40 l 250 861 b 354 964 250 963 293 964 l 354 978 z "},"L":{"ha":822,"x_min":0,"x_max":0,"o":"m 697 301 b 292 15 685 15 515 14 l 242 15 l 242 840 b 331 964 242 940 271 964 l 331 978 l 56 978 l 56 964 b 132 849 115 964 132 933 l 132 158 b 67 15 132 64 126 15 l 67 0 l 711 0 l 711 301 z "},"M":{"ha":1203,"x_min":0,"x_max":0,"o":"m 1054 160 l 1054 840 b 1161 963 1054 939 1101 963 l 1161 978 l 944 978 l 668 150 l 296 978 l 56 978 l 56 963 b 210 872 89 961 158 961 l 210 343 b 19 15 210 108 172 15 l 19 0 l 399 0 l 399 15 b 225 343 261 15 225 103 l 225 846 l 611 -12 l 626 -12 l 944 931 l 944 160 b 844 15 944 38 903 15 l 844 0 l 1168 0 l 1168 15 b 1054 160 1108 15 1054 38 z "},"N":{"ha":1071,"x_min":0,"x_max":0,"o":"m 664 978 l 664 964 b 842 636 842 964 842 829 l 842 161 l 221 978 l 6 978 l 6 964 b 171 856 42 961 82 967 l 229 779 l 229 344 b 32 15 229 157 228 15 l 32 0 l 424 0 l 424 15 b 244 344 244 15 244 160 l 244 761 l 828 0 l 857 0 l 857 636 b 1049 964 857 829 853 964 l 1049 978 z "},"O":{"ha":1008,"x_min":0,"x_max":0,"o":"m 810 482 b 494 3 810 100 658 3 b 176 482 329 3 176 100 b 494 975 176 863 329 975 b 810 482 658 975 810 863 z m 932 482 b 494 990 932 757 800 990 b 57 482 189 990 57 757 b 494 -12 57 206 189 -12 b 932 482 800 -12 932 206 z "},"P":{"ha":764,"x_min":0,"x_max":0,"o":"m 240 435 l 240 964 l 253 964 b 594 697 429 964 594 969 b 253 435 594 435 440 435 z m 240 419 l 253 419 b 708 697 529 419 708 444 b 253 978 708 951 529 978 l 51 978 l 51 964 b 136 847 126 964 136 949 l 136 185 b 44 15 136 35 117 15 l 44 0 l 365 0 l 365 15 b 240 190 264 15 240 18 z "},"Q":{"ha":1010,"x_min":0,"x_max":0,"o":"m 810 482 b 494 3 810 100 658 3 b 176 482 329 3 176 100 b 494 975 176 863 329 975 b 810 482 658 975 810 863 z m 932 482 b 494 990 932 757 800 990 b 57 482 189 990 57 757 b 494 -12 57 206 189 -12 b 932 482 800 -12 932 206 z m 540 -117 b 133 -168 540 -117 313 -21 l 147 -181 b 364 -146 181 -158 283 -114 l 465 -190 b 863 -231 686 -289 757 -310 l 946 -165 l 935 -154 b 736 -187 897 -182 839 -221 z "},"R":{"ha":813,"x_min":0,"x_max":0,"o":"m 549 713 b 257 465 549 464 426 465 l 214 465 l 214 963 l 257 963 b 549 713 413 963 549 972 z m 811 15 b 668 132 775 18 692 25 b 414 457 593 463 507 447 b 667 713 556 461 667 515 b 257 978 667 944 533 978 l 32 978 l 32 963 b 111 865 93 963 111 951 l 111 161 b 32 15 111 32 92 15 l 32 0 l 297 0 l 297 15 b 214 133 239 15 214 36 l 214 450 l 279 450 b 515 303 333 450 481 450 b 717 0 586 1 572 0 l 811 0 z "},"S":{"ha":756,"x_min":0,"x_max":0,"o":"m 638 101 b 499 476 694 197 686 353 l 261 632 b 332 975 38 776 182 975 b 613 692 568 975 607 861 l 629 692 l 629 925 b 332 990 629 925 515 990 b 83 882 151 990 83 882 b 233 522 -19 710 133 592 l 471 365 b 369 3 631 254 611 3 b 78 329 139 3 85 117 l 64 329 l 64 63 b 369 -12 64 63 165 -12 b 638 101 581 -12 638 101 z "},"T":{"ha":871,"x_min":0,"x_max":0,"o":"m 26 978 l 26 750 l 40 750 b 272 964 43 963 208 964 l 382 964 l 382 118 b 290 15 382 28 349 15 l 290 0 l 579 0 l 579 15 b 488 118 521 15 488 28 l 488 964 l 597 964 b 829 750 626 964 826 963 l 844 750 l 844 978 z "},"U":{"ha":950,"x_min":0,"x_max":0,"o":"m 428 -12 b 763 325 624 -12 764 100 l 763 685 b 925 963 763 882 757 963 l 925 978 l 594 978 l 594 963 b 747 685 742 963 747 882 l 747 325 b 486 39 747 144 646 39 b 222 317 325 39 222 139 l 222 840 b 324 963 222 954 264 963 l 324 978 l 25 978 l 25 963 b 117 843 86 963 117 942 l 117 329 b 428 -12 117 103 253 -12 z "},"V":{"ha":1000,"x_min":0,"x_max":0,"o":"m 649 978 l 649 963 b 710 633 835 963 776 826 l 525 131 l 261 860 b 354 963 256 874 240 963 l 354 978 l 17 978 l 17 963 b 147 867 69 963 111 961 b 474 0 147 867 389 206 l 490 0 l 725 631 b 969 963 844 964 864 963 l 969 978 z "},"W":{"ha":1415,"x_min":0,"x_max":0,"o":"m 1072 978 l 1072 963 b 1138 633 1246 963 1197 832 l 968 138 l 725 864 b 819 963 721 878 696 963 l 819 978 l 481 978 l 481 963 b 615 856 532 963 579 950 l 685 649 l 521 142 l 263 864 b 357 963 257 878 235 963 l 357 978 l 17 978 l 17 963 b 153 856 69 963 117 950 l 471 0 l 489 0 l 693 626 l 915 0 l 932 0 l 1154 631 b 1397 963 1261 929 1276 963 l 1397 978 z "},"X":{"ha":947,"x_min":0,"x_max":0,"o":"m 746 142 b 501 538 746 142 535 490 l 572 650 b 910 963 768 963 800 963 l 910 978 l 558 978 l 558 963 b 558 661 719 963 671 865 l 490 553 l 343 801 b 356 963 257 940 306 963 l 356 978 l 28 978 l 28 963 b 196 832 83 963 115 957 b 433 464 196 832 382 540 l 354 342 b 18 14 143 15 110 14 l 18 0 l 347 0 l 347 14 b 368 329 188 14 240 89 l 444 449 l 610 171 b 607 14 646 114 701 19 l 607 0 l 914 0 l 914 14 b 746 142 849 18 821 19 z "},"Y":{"ha":906,"x_min":0,"x_max":0,"o":"m 560 978 l 560 963 b 615 678 742 963 686 821 l 503 449 l 294 807 b 326 964 200 967 283 964 l 326 978 l 14 978 l 14 964 b 157 856 64 960 94 963 b 414 408 157 856 210 769 l 414 150 b 317 15 414 28 375 15 l 317 0 l 607 0 l 607 15 b 507 150 549 15 507 28 l 507 426 l 622 658 b 888 963 775 964 815 963 l 888 978 z "},"Z":{"ha":700,"x_min":0,"x_max":0,"o":"m 175 17 l 661 978 l 68 978 l 44 697 l 67 697 b 479 963 103 926 183 963 l 549 963 l 33 0 l 629 0 l 663 325 l 642 325 b 192 17 603 75 521 17 z "},"[":{"ha":413,"x_min":0,"x_max":0,"o":"m 157 1021 l 157 -203 l 390 -203 l 390 -186 b 243 -81 318 -186 243 -182 l 243 886 b 390 1004 243 1003 315 1004 l 390 1021 z "},"\\":{"ha":558,"x_min":0,"x_max":0,"o":"m 449 -22 l 529 -22 l 101 1017 l 21 1017 z "},"]":{"ha":414,"x_min":0,"x_max":0,"o":"m 15 1021 l 15 1004 b 163 886 90 1004 163 1003 l 163 -81 b 15 -186 163 -182 88 -186 l 15 -203 l 249 -203 l 249 1021 z "},"^":{"ha":776,"x_min":0,"x_max":0,"o":"m 400 978 l 368 978 l 124 522 l 156 522 l 383 843 l 615 522 l 646 522 z "},"_":{"ha":778,"x_min":0,"x_max":0,"o":"m 0 -112 l 0 -165 l 778 -165 l 778 -112 z "},"`":{"ha":435,"x_min":0,"x_max":0,"o":"m 96 997 l 6 971 l 326 774 l 347 774 z "},"a":{"ha":647,"x_min":0,"x_max":0,"o":"m 410 349 b 410 133 410 349 410 133 b 272 39 394 100 358 39 b 153 157 190 39 153 97 b 410 349 153 247 236 307 z m 569 43 b 510 126 508 43 510 126 l 510 376 b 336 654 510 542 472 654 b 211 628 336 654 269 657 b 103 525 138 588 111 544 b 111 465 94 507 97 483 b 190 456 131 439 167 436 b 200 538 215 476 221 513 b 163 558 190 550 176 556 b 224 617 154 560 164 589 b 410 442 342 669 410 585 l 410 364 b 57 132 175 303 57 264 b 214 -12 57 -12 214 -12 b 410 107 311 -12 390 38 b 517 -12 414 -17 517 -12 b 628 81 582 -12 619 39 l 614 86 b 569 43 604 43 569 43 z "},"b":{"ha":756,"x_min":0,"x_max":0,"o":"m 560 294 b 357 3 560 68 444 3 b 185 206 256 3 185 78 l 185 433 b 351 615 185 543 249 615 b 560 294 478 615 560 508 z m 678 317 b 389 654 678 493 589 654 b 185 547 315 654 226 618 l 185 1019 l 19 989 l 19 974 b 90 901 78 968 90 949 l 90 7 b 171 56 90 -15 140 21 b 361 -12 218 14 282 -12 b 678 317 543 -12 678 107 z "},"c":{"ha":657,"x_min":0,"x_max":0,"o":"m 599 176 b 385 42 576 115 503 36 b 169 329 285 46 169 125 b 389 639 169 597 331 639 b 529 592 500 639 543 589 b 493 576 519 594 504 588 b 494 500 471 556 472 522 b 571 503 514 481 551 483 b 582 558 586 518 588 540 b 389 654 576 582 544 654 b 63 318 189 654 63 493 b 363 -12 63 93 222 -12 b 610 172 532 -12 597 104 z "},"d":{"ha":725,"x_min":0,"x_max":0,"o":"m 543 186 b 378 24 543 89 468 24 b 171 351 253 24 171 133 b 375 639 171 581 288 639 b 543 453 461 639 543 567 z m 708 26 b 638 96 653 24 638 28 l 638 1019 l 472 989 l 472 974 b 543 899 529 968 543 947 l 543 599 b 371 654 499 632 440 654 b 53 328 190 654 53 540 b 343 -12 53 147 143 -12 b 543 85 414 -12 501 19 l 543 14 b 582 -11 543 14 543 -18 l 708 13 z "},"e":{"ha":657,"x_min":0,"x_max":0,"o":"m 157 350 b 339 639 157 544 260 639 b 507 350 400 639 507 565 z m 568 167 b 367 38 546 96 456 33 b 157 333 250 43 160 121 l 601 333 b 340 654 601 553 483 654 b 50 314 179 654 50 524 b 342 -12 50 119 174 -12 b 579 163 494 -12 569 100 z "},"f":{"ha":399,"x_min":0,"x_max":0,"o":"m 443 921 b 431 988 450 943 443 971 b 314 1032 418 1004 371 1032 b 107 642 158 1032 107 935 l 17 642 l 18 626 l 107 626 l 107 100 b 53 14 107 33 106 24 l 53 0 l 275 0 l 275 14 b 203 100 225 22 203 28 l 203 626 l 358 626 l 361 642 l 203 642 b 314 1018 203 957 242 1018 b 360 993 349 1018 371 997 b 331 963 347 989 336 978 b 365 885 318 929 335 897 b 443 921 397 874 432 890 z "},"g":{"ha":733,"x_min":0,"x_max":0,"o":"m 500 440 b 342 239 500 285 406 239 b 186 440 281 239 186 285 b 342 639 186 596 272 639 b 500 440 401 639 500 596 z m 704 563 b 715 640 729 581 735 615 b 658 663 703 657 681 664 b 536 588 626 661 571 639 b 342 654 492 629 419 654 b 86 440 188 654 86 553 b 193 256 86 367 118 289 b 75 113 67 225 75 113 b 132 11 75 69 90 32 b 38 -237 36 -49 -15 -147 b 485 -258 96 -339 299 -364 b 635 -72 631 -176 635 -72 b 392 83 658 96 488 83 l 239 83 b 207 249 65 83 129 240 b 342 224 244 232 288 224 b 600 440 499 224 600 328 b 546 579 600 490 582 544 b 618 613 572 619 621 624 b 626 571 614 599 618 583 b 704 563 646 547 681 543 z m 121 -212 b 147 3 125 -217 13 -92 b 261 -12 193 -14 246 -12 l 456 -12 b 585 -83 583 -12 585 -83 b 476 -244 585 -83 593 -171 b 121 -212 357 -319 181 -283 z "},"h":{"ha":674,"x_min":0,"x_max":0,"o":"m 654 14 b 597 110 606 26 597 33 l 597 426 b 397 654 597 593 513 654 b 188 493 303 654 207 575 l 188 1019 l 22 988 l 22 972 b 92 900 81 967 92 949 l 92 110 b 36 15 92 39 89 31 l 36 0 l 244 0 l 244 15 b 188 110 194 28 188 33 l 188 475 b 344 600 206 518 261 600 b 503 421 450 600 503 532 l 503 110 b 447 14 503 39 500 29 l 447 0 l 654 0 l 654 14 z "},"i":{"ha":314,"x_min":0,"x_max":0,"o":"m 143 772 b 203 831 175 772 203 799 b 143 890 203 864 175 890 b 85 831 110 890 85 864 b 143 772 85 799 110 772 z m 261 15 b 204 108 211 28 204 32 l 204 654 l 40 622 l 40 608 b 110 533 99 600 110 581 l 110 108 b 54 15 110 38 107 31 l 54 0 l 261 0 z "},"j":{"ha":313,"x_min":0,"x_max":0,"o":"m 142 772 b 201 831 174 772 201 799 b 142 890 201 865 174 890 b 83 831 108 890 83 865 b 142 772 83 799 108 772 z m 107 38 b -18 -303 107 -36 107 -261 l -18 -317 b 203 69 119 -282 203 -193 l 203 654 l 39 622 l 39 608 b 107 526 99 600 107 574 z "},"k":{"ha":685,"x_min":0,"x_max":0,"o":"m 661 15 b 553 64 625 15 592 19 b 299 351 553 64 350 279 b 675 628 543 607 590 626 l 675 642 l 374 642 l 374 628 b 351 440 563 629 351 440 l 221 307 b 340 164 221 307 329 179 b 574 0 444 26 478 0 l 661 0 z m 236 15 b 179 108 186 28 179 32 l 179 1019 l 14 989 l 14 974 b 83 900 72 968 83 949 l 83 108 b 28 15 83 38 81 31 l 28 0 l 236 0 z "},"l":{"ha":293,"x_min":0,"x_max":0,"o":"m 254 15 b 197 108 204 28 197 32 l 197 1019 l 32 989 l 32 974 b 101 900 90 968 101 949 l 101 108 b 46 15 101 38 99 31 l 46 0 l 254 0 l 254 15 z "},"m":{"ha":1001,"x_min":0,"x_max":0,"o":"m 982 14 b 925 108 932 26 925 32 l 925 428 b 739 654 925 594 854 654 b 547 504 650 654 572 586 b 369 654 529 611 467 654 b 179 513 282 654 206 590 l 179 654 l 14 622 l 14 608 b 83 531 72 600 83 579 l 83 108 b 28 15 83 38 81 31 l 28 0 l 236 0 l 236 15 b 179 108 186 28 179 32 l 179 479 b 321 601 193 525 240 601 b 458 422 422 601 458 533 l 458 108 b 403 14 458 38 456 29 l 403 0 l 610 0 l 610 14 b 553 108 561 26 553 32 l 553 425 b 553 476 553 444 553 464 b 692 601 567 524 611 601 b 831 422 792 601 831 533 l 831 108 b 775 14 831 38 828 29 l 775 0 l 982 0 l 982 14 z "},"n":{"ha":675,"x_min":0,"x_max":0,"o":"m 642 14 b 585 108 592 26 585 32 l 585 428 b 385 654 585 594 499 654 b 179 511 297 654 207 589 l 179 654 l 14 622 l 14 608 b 83 532 72 600 83 581 l 83 108 b 28 15 83 38 81 31 l 28 0 l 236 0 l 236 15 b 179 108 186 28 179 32 l 179 479 b 332 601 196 526 253 601 b 490 422 435 601 490 531 l 490 108 b 435 14 490 38 488 29 l 435 0 l 642 0 l 642 14 z "},"o":{"ha":742,"x_min":0,"x_max":0,"o":"m 575 321 b 372 3 575 69 482 3 b 168 321 263 3 168 69 b 372 639 168 572 263 639 b 575 321 482 639 575 572 z m 688 321 b 372 654 688 504 585 654 b 57 321 161 654 57 504 b 372 -12 57 139 161 -12 b 688 321 585 -12 688 139 z "},"p":{"ha":760,"x_min":0,"x_max":0,"o":"m 563 292 b 358 3 563 64 447 3 b 188 185 263 3 193 69 l 188 450 b 354 617 193 550 256 617 b 563 292 478 617 563 511 z m 681 315 b 390 654 681 494 590 654 b 188 549 317 654 228 618 l 188 654 l 22 622 l 22 608 b 92 536 81 603 92 585 l 92 -262 b 36 -353 92 -333 89 -337 l 36 -368 l 244 -368 l 244 -353 b 188 -262 194 -340 188 -339 l 188 44 b 364 -12 232 10 290 -12 b 681 315 544 -12 681 103 z "},"q":{"ha":736,"x_min":0,"x_max":0,"o":"m 540 169 b 379 19 533 79 465 19 b 172 351 254 19 172 133 b 375 639 172 581 288 639 b 540 467 458 639 533 575 z m 693 -353 b 636 -262 643 -340 636 -339 l 636 638 b 554 596 636 660 579 632 b 375 654 508 632 447 654 b 58 329 194 654 58 540 b 349 -12 58 149 149 -12 b 540 75 415 -12 496 17 l 540 -262 b 485 -353 540 -333 538 -337 l 485 -368 l 693 -368 z "},"r":{"ha":467,"x_min":0,"x_max":0,"o":"m 383 651 b 185 515 315 651 225 597 l 185 654 l 19 622 l 19 608 b 89 533 78 601 89 581 l 89 108 b 33 15 89 38 86 31 l 33 0 l 242 0 l 242 15 b 185 108 192 28 185 32 l 185 485 b 329 597 225 582 336 625 b 336 551 325 582 328 565 b 426 532 357 521 397 513 b 446 621 457 551 465 590 b 383 651 431 642 406 651 z "},"s":{"ha":579,"x_min":0,"x_max":0,"o":"m 469 53 b 369 333 535 146 496 256 l 229 421 b 256 639 108 497 104 639 b 468 433 426 639 463 531 l 482 433 l 482 610 b 256 654 482 610 415 654 b 78 569 114 654 78 569 b 192 317 32 478 60 408 l 332 232 b 303 3 438 163 474 3 b 78 235 113 3 83 124 l 64 235 l 64 39 b 303 -12 64 39 135 -12 b 469 53 425 -12 469 53 z "},"t":{"ha":414,"x_min":0,"x_max":0,"o":"m 383 104 b 299 40 372 71 339 40 b 192 204 235 40 192 78 l 192 626 l 353 626 l 356 642 l 192 642 l 192 858 l 96 846 l 96 642 l 24 642 l 26 626 l 96 626 l 96 200 b 253 -12 96 32 157 -12 b 394 99 326 -12 379 40 l 383 104 z "},"u":{"ha":696,"x_min":0,"x_max":0,"o":"m 672 25 b 601 110 614 32 601 43 l 601 654 l 440 629 l 440 614 b 506 522 507 613 506 607 l 506 156 b 351 40 485 96 435 40 b 194 200 271 40 194 82 l 194 654 l 24 629 l 24 614 b 101 515 101 614 101 608 l 101 196 b 311 -12 101 19 215 -12 b 506 122 407 -12 486 51 l 506 7 b 538 -11 506 7 506 -18 l 672 11 l 672 25 z "},"v":{"ha":715,"x_min":0,"x_max":0,"o":"m 450 642 l 450 628 b 535 454 603 628 535 454 l 413 118 l 222 535 b 274 628 222 535 174 628 l 274 642 l 6 642 l 6 628 b 103 558 28 625 68 626 b 369 -12 103 558 124 521 l 381 -12 l 556 467 b 717 628 621 626 654 628 l 717 642 z "},"w":{"ha":994,"x_min":0,"x_max":0,"o":"m 750 642 l 750 628 b 836 486 883 628 836 486 l 718 125 l 550 542 b 599 628 550 542 507 628 l 599 642 l 361 642 l 361 628 b 444 547 382 625 415 617 b 493 433 444 547 450 536 l 388 125 l 218 547 b 258 628 218 547 182 628 l 258 642 l 22 642 l 22 628 b 114 547 43 625 85 617 b 346 -12 114 547 128 521 l 357 -12 l 501 411 l 676 -12 l 686 -12 l 850 478 b 985 628 897 619 944 628 l 985 642 z "},"x":{"ha":700,"x_min":0,"x_max":0,"o":"m 563 92 l 382 357 l 429 422 b 689 628 571 633 625 626 l 689 642 l 401 642 l 401 628 b 418 433 547 628 486 543 l 374 371 l 268 525 b 278 628 211 607 243 628 l 278 642 l 21 642 l 21 628 b 139 550 64 626 83 619 l 321 286 l 272 217 b 15 14 125 4 65 14 l 15 0 l 281 0 l 281 14 b 283 207 160 14 192 68 l 331 274 l 442 113 b 442 14 442 113 515 14 l 442 0 l 693 0 l 693 14 b 563 92 668 17 615 15 z "},"y":{"ha":738,"x_min":0,"x_max":0,"o":"m 449 642 l 449 628 b 525 406 610 629 525 406 l 424 121 l 239 518 b 283 628 239 518 185 628 l 283 642 l 15 642 l 15 628 b 119 549 38 625 89 617 b 378 -3 119 549 171 446 l 310 -196 b 258 -247 292 -244 264 -268 b 226 -210 254 -232 243 -217 b 144 -242 196 -196 160 -210 b 176 -324 132 -272 144 -308 b 247 -315 199 -333 231 -328 b 324 -199 264 -301 299 -272 l 540 403 b 715 628 617 611 657 628 l 715 642 z "},"z":{"ha":551,"x_min":0,"x_max":0,"o":"m 511 642 l 56 642 l 49 458 l 65 458 b 399 628 82 608 213 628 l 40 0 l 492 0 l 504 211 l 488 211 b 165 14 469 53 374 14 z "},"{":{"ha":443,"x_min":0,"x_max":0,"o":"m 365 -218 b 261 4 308 -199 261 -140 l 261 204 b 119 389 261 356 165 389 b 261 589 165 389 261 436 l 261 789 b 365 1011 261 933 308 990 l 364 1021 b 178 789 254 1006 178 949 l 178 626 b 68 393 178 407 124 413 l 68 383 b 178 167 124 365 178 372 l 178 4 b 364 -228 178 -156 254 -212 l 365 -218 z "},"|":{"ha":269,"x_min":0,"x_max":0,"o":"m 101 -228 l 169 -228 l 169 1021 l 101 1021 z "},"}":{"ha":444,"x_min":0,"x_max":0,"o":"m 74 -228 b 260 4 183 -212 260 -156 l 260 167 b 369 383 260 372 314 365 l 369 393 b 260 626 314 413 260 407 l 260 789 b 74 1021 260 949 183 1006 l 72 1011 b 176 789 129 990 176 933 l 176 589 b 318 389 176 436 272 389 b 176 204 272 389 176 356 l 176 4 b 72 -218 176 -140 129 -199 z "},"~":{"ha":788,"x_min":0,"x_max":0,"o":"m 457 307 b 707 442 457 307 631 244 l 699 444 b 493 383 665 368 538 365 l 336 443 b 86 308 336 443 163 504 l 94 306 b 303 367 133 388 257 383 z "},"":{"ha":0,"x_min":0,"x_max":0,"o":""}," ":{"ha":336,"x_min":0,"x_max":0,"o":""},"¡":{"ha":365,"x_min":0,"x_max":0,"o":"m 158 542 l 133 -243 l 236 -243 l 213 542 z m 186 790 b 117 721 147 790 117 760 b 186 651 117 682 147 651 b 257 721 225 651 257 682 b 186 790 257 760 225 790 z "},"¢":{"ha":713,"x_min":0,"x_max":0,"o":"m 211 329 b 403 638 211 563 333 626 l 403 42 b 211 329 308 58 211 142 z m 640 178 b 429 40 618 117 546 39 l 429 639 b 571 592 540 639 585 590 b 535 576 561 592 546 588 b 536 500 513 556 514 522 b 613 503 556 481 592 483 b 624 558 628 519 629 540 b 429 654 618 582 585 654 l 429 824 l 403 824 l 403 654 b 104 318 218 640 104 485 b 403 -12 104 99 250 -8 l 403 -164 l 429 -164 l 429 -12 b 651 174 581 -3 639 107 z "},"£":{"ha":882,"x_min":0,"x_max":0,"o":"m 408 124 b 193 3 368 44 288 3 b 64 93 175 3 88 4 b 276 201 47 154 135 261 b 408 124 317 185 361 158 z m 344 239 b 49 90 103 332 29 156 b 194 -12 81 -6 181 -12 b 442 103 290 -12 378 7 b 663 -12 532 36 599 -15 b 815 171 704 -10 817 26 l 799 172 b 626 90 794 89 699 63 b 483 167 626 90 554 119 b 468 436 513 233 529 336 l 421 504 l 656 504 l 656 519 l 410 519 b 563 997 174 907 356 1069 b 617 939 614 979 633 938 b 568 925 600 942 583 938 b 560 831 540 901 535 860 b 653 822 583 803 625 799 b 678 888 674 839 683 867 b 569 1011 669 917 649 976 b 283 519 374 1097 68 928 l 157 519 l 157 504 l 292 504 b 367 389 321 461 344 424 b 425 193 418 307 435 257 b 344 239 399 214 344 239 z "},"¤":{"ha":736,"x_min":0,"x_max":0,"o":"m 190 654 b 364 726 236 700 299 726 b 538 654 431 726 492 700 b 610 481 583 607 610 546 b 538 306 610 414 583 351 b 364 233 492 260 431 233 b 190 306 299 233 236 260 b 118 479 143 353 118 415 b 190 654 118 543 143 607 z m 607 283 b 676 481 651 339 676 407 b 607 676 676 553 651 621 l 703 772 l 658 819 l 560 722 b 364 792 506 768 438 792 b 168 722 290 792 224 768 l 71 819 l 25 772 l 121 676 b 51 481 76 621 51 553 b 121 283 51 407 76 339 l 25 186 l 71 142 l 168 238 b 364 167 224 193 290 167 b 560 238 438 167 506 193 l 658 142 l 703 186 z "},"¥":{"ha":793,"x_min":0,"x_max":0,"o":"m 508 964 b 561 676 690 964 632 819 l 450 451 l 243 807 b 275 965 149 967 232 965 l 275 978 l -37 978 l -37 965 b 106 856 14 961 43 963 b 346 439 106 856 156 775 l 92 439 l 92 419 l 356 419 l 363 407 l 363 326 l 92 326 l 92 307 l 363 307 l 363 149 b 265 15 363 28 324 15 l 265 0 l 556 0 l 556 15 b 458 149 497 15 458 28 l 458 307 l 701 307 l 701 326 l 458 326 l 458 419 l 701 419 l 701 439 l 461 439 l 571 660 b 836 964 724 965 764 964 l 836 978 l 508 978 z "},"¦":{"ha":275,"x_min":0,"x_max":0,"o":"m 165 1021 l 99 1021 l 99 500 l 165 500 z m 165 258 l 99 258 l 99 -265 l 165 -265 z "},"§":{"ha":718,"x_min":0,"x_max":0,"o":"m 257 575 b 294 547 258 572 274 563 b 467 428 329 524 415 465 b 469 67 582 347 675 201 b 421 101 467 69 447 83 b 256 215 385 128 306 181 b 257 575 142 296 50 442 z m 482 56 b 507 519 729 213 668 407 l 329 642 b 204 853 221 725 193 771 b 417 982 218 956 308 992 b 499 929 472 975 517 928 b 460 911 485 931 471 922 b 464 826 438 886 440 849 b 551 829 490 803 529 804 b 561 892 565 846 568 872 b 403 999 544 939 476 994 b 140 814 328 1003 163 993 b 243 586 128 707 168 651 b 215 124 -4 426 56 238 l 394 0 b 515 -210 501 -79 528 -126 b 311 -339 503 -311 400 -350 b 219 -287 257 -331 201 -286 b 263 -268 236 -289 250 -281 b 258 -182 286 -244 283 -204 b 172 -186 232 -160 194 -161 b 160 -249 157 -203 153 -229 b 317 -354 176 -296 246 -350 b 585 -171 392 -360 563 -351 b 482 56 599 -64 554 -6 z "},"¨":{"ha":288,"x_min":0,"x_max":0,"o":"m 189 897 b 244 843 189 868 214 843 b 300 897 275 843 300 868 b 244 954 300 929 275 954 b 189 897 214 954 189 929 z m -12 897 b 43 843 -12 868 11 843 b 99 897 72 843 99 868 b 43 954 99 929 72 954 b -12 897 11 954 -12 929 z "},"©":{"ha":1100,"x_min":0,"x_max":0,"o":"m 715 383 b 553 231 710 236 596 231 b 363 499 489 231 363 246 b 553 764 363 744 479 764 b 715 613 597 764 710 758 l 726 613 l 733 732 b 553 779 685 772 633 779 b 281 499 393 779 281 683 b 553 215 281 314 393 215 b 733 264 636 215 675 225 l 726 383 z m 544 60 b 93 511 296 60 93 263 b 544 964 93 760 296 964 b 996 511 792 964 996 760 b 544 60 996 263 792 60 z m 544 1014 b 40 511 264 1014 40 789 b 544 8 40 232 264 8 b 1050 511 824 8 1050 232 b 544 1014 1050 789 824 1014 z "},"ª":{"ha":393,"x_min":0,"x_max":0,"o":"m 213 810 b 213 708 213 810 213 708 b 142 657 206 688 186 657 b 78 718 97 657 78 685 b 213 810 78 764 122 789 z m 317 681 b 296 658 314 658 296 658 b 264 701 264 657 264 701 l 264 832 b 175 978 264 919 246 978 b 108 964 175 978 139 979 b 53 911 71 944 56 921 b 56 879 49 900 50 888 b 97 875 67 865 85 864 b 103 917 110 885 113 904 b 83 928 97 924 92 928 b 115 951 79 928 86 939 b 213 867 178 979 213 942 l 213 826 b 28 704 89 794 28 774 b 110 629 28 628 110 629 b 214 679 161 629 204 650 b 268 629 214 629 268 629 b 331 676 304 629 328 647 z "},"«":{"ha":847,"x_min":0,"x_max":0,"o":"m 725 701 l 404 369 l 725 46 l 725 72 l 501 369 l 725 674 z m 442 701 l 121 369 l 442 46 l 442 72 l 217 369 l 442 674 z "},"¬":{"ha":886,"x_min":0,"x_max":0,"o":"m 57 539 l 57 471 l 749 471 l 749 119 l 821 119 l 821 539 z "},"­":{"ha":617,"x_min":0,"x_max":0,"o":"m 526 315 l 526 392 l 89 392 l 89 315 z "},"®":{"ha":1114,"x_min":0,"x_max":0,"o":"m 489 496 l 465 496 l 465 763 l 489 763 b 651 632 576 763 651 763 b 489 496 651 494 583 496 z m 717 308 b 586 488 692 479 622 486 b 715 632 653 490 715 521 b 489 778 715 760 643 778 l 365 778 l 365 763 b 410 711 399 763 410 760 l 410 331 b 365 251 410 260 399 251 l 365 236 l 511 236 l 511 251 b 465 317 479 251 465 263 l 465 481 l 501 481 b 633 404 501 481 615 481 b 738 236 674 238 658 236 l 796 236 l 796 251 b 717 308 776 251 725 251 z m 546 1014 b 42 511 265 1014 42 790 b 546 8 42 233 265 8 b 1051 511 825 8 1051 233 b 546 1014 1051 790 825 1014 z m 546 61 b 94 511 297 61 94 263 b 546 964 94 761 297 964 b 997 511 793 964 997 761 b 546 61 997 263 793 61 z "},"¯":{"ha":500,"x_min":0,"x_max":0,"o":"m 524 835 l 524 893 l -22 893 l -22 835 z "},"°":{"ha":529,"x_min":0,"x_max":0,"o":"m 118 843 b 261 983 118 919 182 983 b 401 843 338 983 401 919 b 261 703 401 765 338 703 b 118 843 182 703 118 765 z m 79 843 b 260 665 79 744 161 665 b 440 843 358 665 440 744 b 260 1024 440 943 358 1024 b 79 843 161 1024 79 943 z "},"±":{"ha":844,"x_min":0,"x_max":0,"o":"m 453 504 l 453 744 l 381 744 l 381 504 l 57 504 l 57 432 l 381 432 l 381 194 l 453 194 l 453 432 l 778 432 l 778 504 z m 57 0 l 778 0 l 778 72 l 57 72 z "},"²":{"ha":356,"x_min":0,"x_max":0,"o":"m 276 603 b 222 568 263 579 243 568 l 90 568 b 196 728 90 568 167 685 b 269 871 246 794 269 831 b 160 978 269 929 224 978 b 44 858 160 978 46 982 l 61 857 b 182 736 75 997 326 946 l 43 525 l 271 525 l 292 603 z "},"³":{"ha":357,"x_min":0,"x_max":0,"o":"m 301 651 b 197 764 301 700 268 751 b 167 978 324 813 276 978 b 46 875 157 978 49 978 l 63 874 b 194 926 68 936 147 967 b 132 760 258 871 224 768 l 132 746 b 253 643 222 743 249 689 b 157 533 260 561 219 533 b 89 549 106 533 85 549 b 103 561 94 550 99 554 b 90 600 110 575 104 593 b 51 588 76 607 60 601 b 54 557 47 581 47 565 b 157 519 68 540 103 519 b 301 651 213 519 303 542 z "},"´":{"ha":469,"x_min":0,"x_max":0,"o":"m 121 774 l 142 774 l 463 971 l 372 997 z "},"µ":{"ha":690,"x_min":0,"x_max":0,"o":"m 664 25 b 593 110 606 32 593 43 l 593 654 l 432 629 l 432 614 b 497 522 499 613 497 607 l 497 156 b 343 40 476 96 426 40 b 186 185 265 40 193 78 l 186 654 l 15 629 l 15 614 b 93 515 94 611 93 608 l 93 -349 b 124 -367 93 -349 92 -374 l 257 -344 l 257 -331 b 186 -243 199 -324 186 -310 l 186 19 b 497 122 324 -60 475 28 l 497 7 b 529 -11 497 7 497 -18 l 664 11 l 664 25 z "},"¶":{"ha":851,"x_min":0,"x_max":0,"o":"m 624 817 b 738 961 624 914 668 961 l 738 978 l 549 978 l 549 -368 l 728 -368 l 728 -353 b 624 -193 661 -353 624 -301 z m 400 978 l 399 978 b 51 694 232 976 51 924 b 399 417 51 464 210 417 l 399 -231 b 253 -353 399 -328 319 -353 l 253 -368 l 471 -368 l 471 978 z "},"·":{"ha":335,"x_min":0,"x_max":0,"o":"m 164 360 b 221 415 194 360 221 385 b 164 471 221 446 194 471 b 108 415 133 471 108 446 b 164 360 108 385 133 360 z "},"¸":{"ha":363,"x_min":0,"x_max":0,"o":"m 147 -6 l 107 -125 b 258 -221 231 -96 258 -179 b 169 -307 258 -278 219 -307 b 117 -292 128 -306 113 -292 b 132 -279 122 -290 128 -287 b 119 -240 139 -265 133 -247 b 79 -254 104 -233 86 -239 b 82 -285 75 -264 76 -276 b 169 -315 88 -292 111 -315 b 310 -206 217 -315 297 -304 b 132 -94 319 -135 261 -65 l 164 -6 z "},"¹":{"ha":265,"x_min":0,"x_max":0,"o":"m 163 592 l 163 978 l 142 978 l 54 906 l 64 893 b 118 886 94 915 118 925 l 118 592 b 68 543 118 546 94 543 l 68 528 l 210 528 l 210 543 b 163 592 188 543 163 543 z "},"º":{"ha":447,"x_min":0,"x_max":0,"o":"m 222 533 b 103 746 167 533 103 565 b 222 967 103 929 165 967 b 342 746 278 967 342 929 b 222 533 342 565 281 533 z m 222 982 b 47 746 76 982 47 851 b 222 518 47 643 76 518 b 397 746 367 518 397 643 b 222 982 397 851 367 982 z "},"»":{"ha":846,"x_min":0,"x_max":0,"o":"m 117 674 l 340 369 l 117 72 l 117 46 l 438 369 l 117 701 z m 400 674 l 625 369 l 400 72 l 400 46 l 721 369 l 400 701 z "},"¼":{"ha":849,"x_min":0,"x_max":0,"o":"m 206 936 l 206 592 b 151 536 206 539 181 536 l 151 521 l 307 521 l 307 536 b 254 592 282 536 254 536 l 254 1036 l 231 1036 l 135 953 l 144 940 b 206 936 179 968 206 981 z m 629 182 l 488 182 b 476 207 465 182 461 182 l 629 435 z m 685 508 l 660 510 l 424 160 l 424 151 l 629 151 l 629 83 b 579 15 629 18 608 15 l 579 0 l 735 0 l 735 15 b 685 86 704 15 685 17 l 685 151 l 751 151 l 751 182 l 685 182 z m 793 985 l 19 50 l 78 50 l 853 985 z "},"½":{"ha":886,"x_min":0,"x_max":0,"o":"m 815 90 b 744 50 799 63 769 50 l 592 50 b 714 232 592 50 679 183 b 799 397 771 308 799 350 b 675 518 799 463 749 518 b 543 382 675 518 546 524 l 556 379 b 699 242 571 543 865 483 l 542 0 l 800 0 l 825 90 z m 204 936 l 204 592 b 151 536 204 539 181 536 l 151 521 l 306 521 l 306 536 b 254 592 282 536 254 536 l 254 1036 l 231 1036 l 135 953 l 144 940 b 204 936 179 967 204 979 z m 793 985 l 19 50 l 78 50 l 853 985 z "},"¾":{"ha":842,"x_min":0,"x_max":0,"o":"m 631 181 l 489 181 b 478 207 467 181 461 181 l 631 433 z m 753 150 l 753 181 l 686 181 l 686 507 l 661 508 l 425 160 l 425 150 l 631 150 l 631 82 b 581 15 631 18 610 15 l 581 0 l 736 0 l 736 15 b 686 85 706 15 686 17 l 686 150 z m 364 668 b 246 793 363 724 325 781 b 210 1036 388 849 335 1036 b 75 921 200 1036 78 1036 l 93 918 b 242 978 99 988 189 1022 b 171 789 314 915 275 799 l 171 776 b 308 658 274 774 304 708 b 200 533 317 564 274 533 b 125 553 142 533 119 551 b 138 564 129 553 133 557 b 124 608 146 581 140 599 b 81 594 108 617 90 611 b 83 560 75 586 75 569 b 200 518 99 542 139 518 b 364 668 263 518 364 542 z m 793 985 l 19 50 l 78 50 l 853 985 z "},"¿":{"ha":811,"x_min":0,"x_max":0,"o":"m 372 582 b 447 508 372 542 406 508 b 519 582 488 508 519 542 b 447 656 519 624 488 656 b 372 582 406 656 372 624 z m 357 204 b 140 -118 282 168 131 83 b 592 -329 151 -329 368 -429 b 697 -219 657 -301 692 -243 b 690 -156 703 -199 706 -175 b 603 -137 671 -126 631 -118 b 588 -226 575 -158 568 -197 b 626 -251 597 -240 611 -250 b 585 -318 644 -253 651 -293 b 263 -112 465 -364 283 -350 b 396 178 247 68 336 126 b 468 394 485 253 476 340 l 444 392 b 357 204 451 308 426 238 z "},"À":{"ha":936,"x_min":0,"x_max":0,"o":"m 608 324 l 419 811 l 243 324 z m 917 15 l 917 0 l 640 0 l 640 15 b 664 176 699 15 714 60 l 614 308 l 239 308 b 314 15 181 142 133 13 l 314 0 l 19 0 l 19 15 b 228 346 81 15 115 31 l 457 978 l 467 978 b 804 135 551 774 804 135 b 917 15 849 24 876 18 z m 365 1243 l 275 1217 l 596 1019 l 617 1019 z "},"Á":{"ha":936,"x_min":0,"x_max":0,"o":""},"Â":{"ha":936,"x_min":0,"x_max":0,"o":"m 608 324 l 419 811 l 243 324 z m 917 15 l 917 0 l 640 0 l 640 15 b 664 176 699 15 714 60 l 614 308 l 239 308 b 314 15 181 142 133 13 l 314 0 l 19 0 l 19 15 b 228 346 81 15 115 31 l 457 978 l 467 978 b 804 135 551 774 804 135 b 917 15 849 24 876 18 z m 622 1021 l 646 1021 l 457 1282 l 268 1021 l 292 1021 l 457 1181 z "},"Ã":{"ha":936,"x_min":0,"x_max":0,"o":"m 524 1076 b 774 1213 524 1076 697 1014 l 764 1217 b 558 1154 732 1140 603 1136 l 403 1214 b 154 1078 403 1214 229 1275 l 163 1075 b 368 1138 200 1158 324 1154 z m 243 324 l 419 811 l 608 324 z m 917 15 b 804 135 876 18 849 24 b 467 978 804 135 551 774 l 457 978 l 228 346 b 19 15 115 31 81 15 l 19 0 l 314 0 l 314 15 b 239 308 133 13 181 142 l 614 308 l 664 176 b 640 15 714 60 699 15 l 640 0 l 917 0 z "},"Ä":{"ha":936,"x_min":0,"x_max":0,"o":"m 508 1144 b 563 1089 508 1114 532 1089 b 619 1144 593 1089 619 1114 b 563 1201 619 1176 593 1201 b 508 1144 532 1201 508 1176 z m 306 1144 b 361 1089 306 1114 331 1089 b 417 1144 392 1089 417 1114 b 361 1201 417 1176 392 1201 b 306 1144 331 1201 306 1176 z m 243 324 l 419 811 l 608 324 z m 917 15 b 804 135 876 18 849 24 b 467 978 804 135 551 774 l 457 978 l 228 346 b 19 15 115 31 81 15 l 19 0 l 314 0 l 314 15 b 239 308 133 13 181 142 l 614 308 l 664 176 b 640 15 714 60 699 15 l 640 0 l 917 0 z "},"Å":{"ha":936,"x_min":0,"x_max":0,"o":"m 369 1222 b 463 1317 369 1275 410 1317 b 556 1222 514 1317 556 1275 b 463 1129 556 1171 514 1129 b 369 1222 410 1129 369 1171 z m 331 1222 b 463 1090 331 1150 389 1090 b 594 1222 536 1090 594 1150 b 463 1356 594 1296 536 1356 b 331 1222 389 1356 331 1296 z m 243 324 l 419 811 l 608 324 z m 917 15 b 804 135 876 18 849 24 b 467 978 804 135 551 774 l 457 978 l 228 346 b 19 15 115 31 81 15 l 19 0 l 314 0 l 314 15 b 239 308 133 13 181 142 l 614 308 l 664 176 b 640 15 714 60 699 15 l 640 0 l 917 0 z "},"Æ":{"ha":1286,"x_min":0,"x_max":0,"o":"m 310 339 l 622 900 b 624 851 622 894 624 858 l 624 339 z m 1165 281 b 788 15 1151 6 972 15 l 738 15 l 738 485 l 826 485 b 996 347 881 485 992 490 l 1011 347 l 1011 639 l 996 639 b 826 500 992 496 883 500 l 738 500 l 738 963 l 806 963 b 1147 735 974 963 1139 960 l 1163 735 l 1163 978 l 540 978 l 540 963 b 615 925 581 963 604 960 l 299 356 b 7 15 125 42 68 15 l 7 0 l 304 0 l 304 15 b 301 324 165 15 165 76 l 624 324 l 624 149 b 546 15 624 42 604 15 l 546 0 l 1181 0 l 1181 281 z "},"Ç":{"ha":917,"x_min":0,"x_max":0,"o":"m 829 286 b 538 3 821 44 622 3 b 197 489 401 3 197 40 b 538 975 197 928 397 975 b 829 693 626 975 810 943 l 844 693 l 858 906 b 538 990 771 976 681 990 b 56 489 254 990 56 819 b 485 -10 56 183 229 10 l 449 -119 b 600 -215 572 -90 600 -174 b 511 -301 600 -272 561 -301 b 458 -286 469 -300 454 -286 b 474 -274 464 -285 469 -282 b 461 -235 481 -260 475 -242 b 421 -249 446 -228 428 -233 b 424 -279 417 -258 418 -271 b 511 -310 429 -286 453 -310 b 651 -200 558 -310 639 -299 b 474 -89 661 -129 603 -60 l 501 -11 b 538 -12 521 -12 525 -12 b 858 74 686 -12 756 6 l 844 286 z "},"È":{"ha":803,"x_min":0,"x_max":0,"o":"m 699 282 l 699 0 l 43 0 l 43 15 b 114 149 101 15 114 54 l 114 851 b 43 963 114 938 104 963 l 43 978 l 681 978 l 681 735 l 665 735 b 317 963 658 960 486 963 l 228 963 l 228 501 l 339 501 b 515 639 394 501 511 503 l 531 639 l 531 347 l 515 347 b 339 486 511 485 392 486 l 228 486 l 228 15 l 299 15 b 683 282 485 15 669 6 z m 324 1243 l 233 1217 l 554 1019 l 575 1019 z "},"É":{"ha":803,"x_min":0,"x_max":0,"o":"m 683 282 b 299 15 669 6 485 15 l 228 15 l 228 486 l 339 486 b 515 347 392 486 511 485 l 531 347 l 531 639 l 515 639 b 339 501 511 503 394 501 l 228 501 l 228 963 l 317 963 b 665 735 486 963 658 960 l 681 735 l 681 978 l 43 978 l 43 963 b 114 851 104 963 114 938 l 114 149 b 43 15 114 54 101 15 l 43 0 l 699 0 l 699 282 z m 206 1019 l 226 1019 l 547 1217 l 457 1243 z "},"Ê":{"ha":803,"x_min":0,"x_max":0,"o":"m 699 282 l 699 0 l 43 0 l 43 15 b 114 149 101 15 114 54 l 114 851 b 43 963 114 938 104 963 l 43 978 l 681 978 l 681 735 l 665 735 b 317 963 658 960 486 963 l 228 963 l 228 501 l 339 501 b 515 639 394 501 511 503 l 531 639 l 531 347 l 515 347 b 339 486 511 485 392 486 l 228 486 l 228 15 l 299 15 b 683 282 485 15 669 6 z m 546 1021 l 569 1021 l 381 1282 l 192 1021 l 215 1021 l 381 1181 z "},"Ë":{"ha":803,"x_min":0,"x_max":0,"o":"m 422 1144 b 478 1089 422 1114 446 1089 b 533 1144 507 1089 533 1114 b 478 1201 533 1176 507 1201 b 422 1144 446 1201 422 1176 z m 221 1144 b 275 1089 221 1114 244 1089 b 332 1144 306 1089 332 1114 b 275 1201 332 1176 306 1201 b 221 1144 244 1201 221 1176 z m 683 282 b 299 15 669 6 485 15 l 228 15 l 228 486 l 339 486 b 515 347 392 486 511 485 l 531 347 l 531 639 l 515 639 b 339 501 511 503 394 501 l 228 501 l 228 963 l 317 963 b 665 735 486 963 658 960 l 681 735 l 681 978 l 43 978 l 43 963 b 114 851 104 963 114 938 l 114 149 b 43 15 114 54 101 15 l 43 0 l 699 0 l 699 282 z "},"Ì":{"ha":406,"x_min":0,"x_max":0,"o":"m 354 978 l 354 964 b 268 861 294 964 268 947 l 268 139 b 354 15 268 44 296 15 l 354 0 l 68 0 l 68 15 b 156 139 128 15 156 44 l 156 861 b 68 964 156 947 129 964 l 68 978 z m 121 1243 l 31 1217 l 351 1019 l 372 1019 z "},"Í":{"ha":406,"x_min":0,"x_max":0,"o":"m 68 978 l 68 964 b 156 861 129 964 156 947 l 156 139 b 68 15 156 44 128 15 l 68 0 l 354 0 l 354 15 b 268 139 296 15 268 44 l 268 861 b 354 964 268 947 294 964 l 354 978 z m 60 1019 l 81 1019 l 401 1217 l 311 1243 z "},"Î":{"ha":406,"x_min":0,"x_max":0,"o":"m 354 978 l 354 964 b 268 861 294 964 268 947 l 268 139 b 354 15 268 44 296 15 l 354 0 l 68 0 l 68 15 b 156 139 128 15 156 44 l 156 861 b 68 964 156 947 129 964 l 68 978 z m 378 1021 l 401 1021 l 213 1282 l 24 1021 l 47 1021 l 213 1181 z "},"Ï":{"ha":406,"x_min":0,"x_max":0,"o":"m 313 1090 b 368 1144 343 1090 368 1114 b 313 1201 368 1176 343 1201 b 257 1144 282 1201 257 1176 b 313 1090 257 1114 282 1090 z m 167 1144 b 111 1201 167 1176 140 1201 b 56 1144 79 1201 56 1176 b 111 1090 56 1114 79 1090 b 167 1144 140 1090 167 1114 z m 68 964 b 156 861 129 964 156 947 l 156 139 b 68 15 156 44 128 15 l 68 0 l 356 0 l 356 15 b 268 139 297 15 268 44 l 268 861 b 356 964 268 947 296 964 l 356 978 l 68 978 z "},"Ð":{"ha":931,"x_min":0,"x_max":0,"o":"m 739 488 b 332 15 739 13 488 15 l 271 15 l 271 474 l 468 474 l 468 503 l 271 503 l 271 964 l 332 964 b 739 488 493 964 739 944 z m 868 488 b 332 978 868 894 608 978 l 68 978 l 68 964 b 156 828 129 964 156 914 l 156 503 l 17 503 l 17 474 l 156 474 l 156 153 b 68 15 156 58 128 15 l 68 0 l 332 0 b 868 488 608 0 868 60 z "},"Ñ":{"ha":1071,"x_min":0,"x_max":0,"o":"m 590 1076 b 840 1213 590 1076 763 1014 l 831 1217 b 625 1154 797 1140 669 1136 l 469 1214 b 221 1078 469 1214 296 1275 l 229 1075 b 435 1138 267 1158 390 1154 z m 664 978 l 664 964 b 842 636 842 964 842 829 l 842 161 l 221 978 l 6 978 l 6 964 b 171 856 42 961 82 967 l 229 779 l 229 344 b 32 15 229 157 228 15 l 32 0 l 424 0 l 424 15 b 244 344 244 15 244 160 l 244 761 l 828 0 l 857 0 l 857 636 b 1049 964 857 829 853 964 l 1049 978 z "},"Ò":{"ha":1008,"x_min":0,"x_max":0,"o":"m 810 482 b 494 975 810 863 658 975 b 176 482 329 975 176 863 b 494 3 176 100 329 3 b 810 482 658 3 810 100 z m 932 482 b 494 -12 932 206 800 -12 b 57 482 189 -12 57 206 b 494 990 57 757 189 990 b 932 482 800 990 932 757 z m 404 1243 l 314 1217 l 635 1019 l 656 1019 z "},"Ó":{"ha":1008,"x_min":0,"x_max":0,"o":""},"Ô":{"ha":1008,"x_min":0,"x_max":0,"o":"m 810 482 b 494 975 810 863 658 975 b 176 482 329 975 176 863 b 494 3 176 100 329 3 b 810 482 658 3 810 100 z m 932 482 b 494 -12 932 206 800 -12 b 57 482 189 -12 57 206 b 494 990 57 757 189 990 b 932 482 800 990 932 757 z m 656 1021 l 679 1021 l 490 1282 l 301 1021 l 325 1021 l 490 1181 z "},"Õ":{"ha":1008,"x_min":0,"x_max":0,"o":"m 406 1136 l 560 1076 b 810 1213 560 1076 733 1014 l 801 1217 b 596 1153 768 1140 640 1136 l 439 1214 b 190 1078 439 1214 267 1275 l 199 1075 b 406 1136 238 1158 360 1154 z m 810 482 b 494 975 810 863 658 975 b 176 482 329 975 176 863 b 494 3 176 100 329 3 b 810 482 658 3 810 100 z m 932 482 b 494 -12 932 206 800 -12 b 57 482 189 -12 57 206 b 494 990 57 757 189 990 b 932 482 800 990 932 757 z "},"Ö":{"ha":1008,"x_min":0,"x_max":0,"o":"m 542 1144 b 596 1089 542 1114 565 1089 b 653 1144 626 1089 653 1114 b 596 1201 653 1176 626 1201 b 542 1144 565 1201 542 1176 z m 340 1144 b 394 1089 340 1114 364 1089 b 450 1144 425 1089 450 1114 b 394 1201 450 1176 425 1201 b 340 1144 364 1201 340 1176 z m 810 482 b 494 3 810 100 658 3 b 176 482 329 3 176 100 b 494 975 176 863 329 975 b 810 482 658 975 810 863 z m 932 482 b 494 990 932 757 800 990 b 57 482 189 990 57 757 b 494 -12 57 206 189 -12 b 932 482 800 -12 932 206 z "},"×":{"ha":833,"x_min":0,"x_max":0,"o":"m 476 353 l 751 628 l 692 688 l 417 414 l 143 689 l 82 628 l 357 353 l 82 78 l 143 17 l 417 293 l 692 17 l 751 78 z "},"Ø":{"ha":1010,"x_min":0,"x_max":0,"o":"m 496 3 b 288 90 417 3 344 25 l 732 842 b 811 483 779 765 811 650 b 496 3 811 100 660 3 z m 178 483 b 496 975 178 865 331 975 b 718 867 581 975 660 949 l 271 113 b 178 483 215 185 178 301 z m 768 903 l 847 1035 l 818 1035 l 749 919 b 496 990 683 965 600 990 b 58 483 190 990 58 760 b 240 60 58 301 115 144 l 176 -49 l 206 -49 l 261 46 b 496 -12 324 8 401 -12 b 933 483 801 -12 933 206 b 768 903 933 654 882 811 z "},"Ù":{"ha":950,"x_min":0,"x_max":0,"o":"m 368 1243 l 278 1217 l 599 1019 l 619 1019 z m 428 -12 b 117 329 253 -12 117 103 l 117 843 b 25 963 117 942 86 963 l 25 978 l 324 978 l 324 963 b 222 840 264 963 222 954 l 222 317 b 486 39 222 139 325 39 b 747 325 646 39 747 144 l 747 685 b 594 963 747 882 742 963 l 594 978 l 925 978 l 925 963 b 763 685 757 963 763 882 l 763 325 b 428 -12 764 100 624 -12 z "},"Ú":{"ha":950,"x_min":0,"x_max":0,"o":"m 428 -12 b 763 325 624 -12 764 100 l 763 685 b 925 963 763 882 757 963 l 925 978 l 594 978 l 594 963 b 747 685 742 963 747 882 l 747 325 b 486 39 747 144 646 39 b 222 317 325 39 222 139 l 222 840 b 324 963 222 954 264 963 l 324 978 l 25 978 l 25 963 b 117 843 86 963 117 942 l 117 329 b 428 -12 117 103 253 -12 z m 313 1019 l 333 1019 l 654 1217 l 564 1243 z "},"Û":{"ha":950,"x_min":0,"x_max":0,"o":"m 633 1021 l 657 1021 l 468 1282 l 279 1021 l 303 1021 l 468 1181 z m 428 -12 b 117 329 253 -12 117 103 l 117 843 b 25 963 117 942 86 963 l 25 978 l 324 978 l 324 963 b 222 840 264 963 222 954 l 222 317 b 486 39 222 139 325 39 b 747 325 646 39 747 144 l 747 685 b 594 963 747 882 742 963 l 594 978 l 925 978 l 925 963 b 763 685 757 963 763 882 l 763 325 b 428 -12 764 100 624 -12 z "},"Ü":{"ha":950,"x_min":0,"x_max":0,"o":"m 518 1144 b 572 1089 518 1114 542 1089 b 629 1144 603 1089 629 1114 b 572 1201 629 1176 603 1201 b 518 1144 542 1201 518 1176 z m 317 1144 b 371 1089 317 1114 340 1089 b 426 1144 401 1089 426 1114 b 371 1201 426 1176 401 1201 b 317 1144 340 1201 317 1176 z m 428 -12 b 763 325 624 -12 764 100 l 763 685 b 925 963 763 882 757 963 l 925 978 l 594 978 l 594 963 b 747 685 742 963 747 882 l 747 325 b 486 39 747 144 646 39 b 222 317 325 39 222 139 l 222 840 b 324 963 222 954 264 963 l 324 978 l 25 978 l 25 963 b 117 843 86 963 117 942 l 117 329 b 428 -12 117 103 253 -12 z "},"Ý":{"ha":906,"x_min":0,"x_max":0,"o":"m 558 978 l 558 963 b 613 681 740 963 682 825 l 500 453 l 293 807 b 325 964 199 967 282 964 l 325 978 l 13 978 l 13 964 b 156 856 63 960 94 963 b 414 408 156 856 210 769 l 414 150 b 317 17 414 28 375 17 l 317 0 l 606 0 l 606 17 b 507 150 547 17 507 28 l 507 426 l 622 657 b 886 963 778 961 814 963 l 886 978 z m 308 1019 l 329 1019 l 650 1217 l 560 1243 z "},"Þ":{"ha":729,"x_min":0,"x_max":0,"o":"m 235 790 l 247 790 b 588 524 422 790 588 796 b 247 263 588 261 433 263 l 235 263 z m 247 247 b 701 524 524 247 701 271 b 247 804 701 778 524 804 l 235 804 l 235 840 b 317 964 235 926 257 964 l 317 978 l 53 978 l 53 964 b 133 840 114 964 133 926 l 133 160 b 53 15 133 65 111 15 l 53 0 l 317 0 l 317 15 b 235 160 258 15 235 65 l 235 247 z "},"ß":{"ha":786,"x_min":0,"x_max":0,"o":"m 751 279 b 431 581 751 522 533 581 b 629 796 458 581 629 625 b 339 1038 629 982 493 1038 b 96 708 169 1038 96 921 l 96 160 b 40 14 96 89 93 31 l 40 0 l 196 0 l 196 783 b 339 1022 196 783 194 1022 b 526 800 364 1022 526 1031 b 346 585 526 607 419 585 l 346 571 b 624 288 451 571 619 532 b 451 3 628 94 564 3 b 381 33 393 3 365 32 b 414 53 390 36 406 40 b 407 129 431 72 429 113 b 332 119 385 144 350 143 b 324 61 319 104 318 79 b 451 -12 332 31 375 -12 b 751 279 660 -12 751 107 z "},"à":{"ha":647,"x_min":0,"x_max":0,"o":"m 410 349 b 410 133 410 349 410 133 b 272 39 394 100 358 39 b 153 157 190 39 153 97 b 410 349 153 247 236 307 z m 569 43 b 510 126 508 43 510 126 l 510 376 b 336 654 510 542 472 654 b 211 628 336 654 269 657 b 103 525 138 588 111 544 b 111 465 94 507 97 483 b 190 456 131 439 167 436 b 200 538 215 476 221 513 b 163 558 190 550 176 556 b 224 617 154 560 164 589 b 410 442 342 669 410 585 l 410 364 b 57 132 175 303 57 264 b 214 -12 57 -12 214 -12 b 410 107 311 -12 390 38 b 517 -12 414 -17 517 -12 b 628 81 582 -12 619 39 l 614 86 b 569 43 604 43 569 43 z m 235 974 l 144 947 l 465 750 l 486 750 z "},"á":{"ha":843,"x_min":0,"x_max":0,"o":""},"â":{"ha":647,"x_min":0,"x_max":0,"o":"m 410 349 b 410 133 410 349 410 133 b 272 39 394 100 358 39 b 153 157 190 39 153 97 b 410 349 153 247 236 307 z m 569 43 b 510 126 508 43 510 126 l 510 376 b 336 654 510 542 472 654 b 211 628 336 654 269 657 b 103 525 138 588 111 544 b 111 465 94 507 97 483 b 190 456 131 439 167 436 b 200 538 215 476 221 513 b 163 558 190 550 176 556 b 224 617 154 560 164 589 b 410 442 342 669 410 585 l 410 364 b 57 132 175 303 57 264 b 214 -12 57 -12 214 -12 b 410 107 311 -12 390 38 b 517 -12 414 -17 517 -12 b 628 81 582 -12 619 39 l 614 86 b 569 43 604 43 569 43 z m 500 718 l 524 718 l 335 979 l 146 718 l 169 718 l 335 878 z "},"ã":{"ha":647,"x_min":0,"x_max":0,"o":"m 403 790 b 653 926 403 790 576 728 l 644 929 b 439 867 611 854 483 850 l 282 928 b 33 792 282 928 110 988 l 42 789 b 249 850 81 872 203 867 z m 410 349 b 410 133 410 349 410 133 b 272 39 394 100 358 39 b 153 157 190 39 153 97 b 410 349 153 247 236 307 z m 569 43 b 510 126 508 43 510 126 l 510 376 b 336 654 510 542 472 654 b 211 628 336 654 269 657 b 103 525 138 588 111 544 b 111 465 94 507 97 483 b 190 456 131 439 167 436 b 200 538 215 476 221 513 b 163 558 190 550 176 556 b 224 617 154 560 164 589 b 410 442 342 669 410 585 l 410 364 b 57 132 175 303 57 264 b 214 -12 57 -12 214 -12 b 410 107 311 -12 390 38 b 517 -12 414 -17 517 -12 b 628 81 582 -12 619 39 l 614 86 b 569 43 604 43 569 43 z "},"ä":{"ha":647,"x_min":0,"x_max":0,"o":"m 419 800 b 475 856 450 800 475 825 b 419 913 475 888 450 913 b 365 856 389 913 365 888 b 419 800 365 825 389 800 z m 163 856 b 218 800 163 825 186 800 b 274 856 249 800 274 825 b 218 913 274 888 249 913 b 163 856 186 913 163 888 z m 410 349 b 410 133 410 349 410 133 b 272 39 394 100 358 39 b 153 157 190 39 153 97 b 410 349 153 247 236 307 z m 569 43 b 510 126 508 43 510 126 l 510 376 b 336 654 510 542 472 654 b 211 628 336 654 269 657 b 103 525 138 588 111 544 b 111 465 94 507 97 483 b 190 456 131 439 167 436 b 200 538 215 476 221 513 b 163 558 190 550 176 556 b 224 617 154 560 164 589 b 410 442 342 669 410 585 l 410 364 b 57 132 175 303 57 264 b 214 -12 57 -12 214 -12 b 410 107 311 -12 390 38 b 517 -12 414 -17 517 -12 b 628 81 582 -12 619 39 l 614 86 b 569 43 604 43 569 43 z "},"å":{"ha":647,"x_min":0,"x_max":0,"o":"m 318 979 b 410 886 368 979 410 938 b 318 793 410 835 368 793 b 225 886 265 793 225 835 b 318 979 225 938 265 979 z m 318 754 b 450 886 390 754 450 814 b 318 1019 450 960 390 1019 b 185 886 244 1019 185 960 b 318 754 185 814 244 754 z m 410 349 b 410 133 410 349 410 133 b 272 39 394 100 358 39 b 153 157 190 39 153 97 b 410 349 153 247 236 307 z m 569 43 b 510 126 508 43 510 126 l 510 376 b 336 654 510 542 472 654 b 211 628 336 654 269 657 b 103 525 138 588 111 544 b 111 465 94 507 97 483 b 190 456 131 439 167 436 b 200 538 215 476 221 513 b 163 558 190 550 176 556 b 224 617 154 560 164 589 b 410 442 342 669 410 585 l 410 364 b 57 132 175 303 57 264 b 214 -12 57 -12 214 -12 b 410 107 311 -12 390 38 b 517 -12 414 -17 517 -12 b 628 81 582 -12 619 39 l 614 86 b 569 43 604 43 569 43 z "},"æ":{"ha":957,"x_min":0,"x_max":0,"o":"m 656 639 b 807 344 719 639 807 574 l 492 344 b 656 639 492 553 574 639 z m 272 39 b 154 158 190 39 154 96 b 390 342 154 279 346 328 b 390 300 390 342 390 308 b 410 150 392 260 399 186 b 272 39 393 97 347 39 z m 679 40 b 490 329 547 46 492 135 l 900 329 b 656 654 900 563 801 654 b 458 549 568 654 513 617 b 317 654 435 613 390 654 b 204 626 317 654 263 656 b 99 525 129 586 107 544 b 107 465 89 507 93 483 b 186 456 126 439 161 436 b 196 538 211 476 215 513 b 158 560 185 550 172 557 b 218 617 150 560 158 589 b 390 442 336 669 390 585 l 390 357 b 57 132 167 296 57 254 b 215 -12 57 -12 215 -12 b 418 135 317 -12 397 40 b 646 -12 454 43 536 -12 b 874 161 804 -12 861 106 l 861 169 b 679 40 840 110 771 36 z "},"ç":{"ha":657,"x_min":0,"x_max":0,"o":"m 599 176 b 385 42 576 115 503 36 b 169 329 285 46 169 125 b 389 639 169 597 331 639 b 529 592 500 639 543 589 b 493 576 519 594 504 588 b 494 500 471 556 472 522 b 571 503 514 481 551 483 b 582 558 586 518 588 540 b 389 654 576 582 544 654 b 63 318 189 654 63 493 b 328 -10 63 111 197 4 l 292 -119 b 443 -215 415 -90 443 -174 b 354 -301 443 -272 404 -301 b 301 -286 313 -300 297 -286 b 317 -274 307 -285 313 -282 b 304 -235 324 -260 318 -242 b 264 -249 289 -228 271 -233 b 267 -279 260 -258 261 -271 b 354 -310 272 -286 296 -310 b 494 -200 401 -310 482 -299 b 317 -89 504 -129 446 -60 l 344 -11 b 363 -12 353 -12 356 -12 b 610 172 532 -12 597 104 z "},"è":{"ha":657,"x_min":0,"x_max":0,"o":"m 507 350 b 339 639 507 565 400 639 b 157 350 260 639 157 544 z m 568 167 l 579 163 b 342 -12 569 100 494 -12 b 50 314 174 -12 50 119 b 340 654 50 524 179 654 b 601 333 483 654 601 553 l 157 333 b 367 38 160 121 250 43 b 568 167 456 33 546 96 z m 263 974 l 172 947 l 493 750 l 514 750 z "},"é":{"ha":657,"x_min":0,"x_max":0,"o":"m 157 350 b 339 639 157 544 260 639 b 507 350 400 639 507 565 z m 568 167 b 367 38 546 96 456 33 b 157 333 250 43 160 121 l 601 333 b 340 654 601 553 483 654 b 50 314 179 654 50 524 b 342 -12 50 119 174 -12 b 579 163 494 -12 569 100 z m 157 750 l 178 750 l 499 947 l 408 974 z "},"ê":{"ha":657,"x_min":0,"x_max":0,"o":"m 507 350 b 339 639 507 565 400 639 b 157 350 260 639 157 544 z m 568 167 l 579 163 b 342 -12 569 100 494 -12 b 50 314 174 -12 50 119 b 340 654 50 524 179 654 b 601 333 483 654 601 553 l 157 333 b 367 38 160 121 250 43 b 568 167 456 33 546 96 z m 493 718 l 517 718 l 328 979 l 139 718 l 163 718 l 328 878 z "},"ë":{"ha":657,"x_min":0,"x_max":0,"o":"m 438 800 b 494 856 468 800 494 825 b 438 913 494 888 468 913 b 383 856 407 913 383 888 b 438 800 383 825 407 800 z m 236 800 b 292 856 267 800 292 825 b 236 913 292 888 267 913 b 181 856 206 913 181 888 b 236 800 181 825 206 800 z m 157 350 b 339 639 157 544 260 639 b 507 350 400 639 507 565 z m 568 167 b 367 38 546 96 456 33 b 157 333 250 43 160 121 l 601 333 b 340 654 601 553 483 654 b 50 314 179 654 50 524 b 342 -12 50 119 174 -12 b 579 163 494 -12 569 100 z "},"ì":{"ha":314,"x_min":0,"x_max":0,"o":"m 261 15 l 261 0 l 54 0 l 54 15 b 110 108 107 31 110 38 l 110 533 b 40 608 110 581 99 600 l 40 622 l 204 654 l 204 108 b 261 15 204 32 211 28 z m 61 974 l -29 947 l 292 750 l 313 750 z "},"í":{"ha":314,"x_min":0,"x_max":0,"o":"m 261 15 b 204 108 211 28 204 32 l 204 654 l 40 622 l 40 608 b 110 533 99 600 110 581 l 110 108 b 54 15 110 38 107 31 l 54 0 l 261 0 z m -12 750 l 8 750 l 329 947 l 239 974 z "},"î":{"ha":314,"x_min":0,"x_max":0,"o":"m 261 15 l 261 0 l 54 0 l 54 15 b 110 108 107 31 110 38 l 110 533 b 40 608 110 581 99 600 l 40 622 l 204 654 l 204 108 b 261 15 204 32 211 28 z m 324 718 l 347 718 l 158 979 l -31 718 l -7 718 l 158 878 z "},"ï":{"ha":314,"x_min":0,"x_max":0,"o":"m 250 800 b 306 856 281 800 306 825 b 250 913 306 888 281 913 b 194 856 218 913 194 888 b 250 800 194 825 218 800 z m 49 800 b 104 856 78 800 104 825 b 49 913 104 888 78 913 b -7 856 17 913 -7 888 b 49 800 -7 825 17 800 z m 261 15 b 204 108 211 28 204 32 l 204 654 l 40 622 l 40 608 b 110 533 97 600 110 581 l 110 108 b 54 15 110 38 107 31 l 54 0 l 261 0 z "},"ð":{"ha":713,"x_min":0,"x_max":0,"o":"m 551 460 b 326 3 551 136 485 3 b 174 286 240 3 164 72 b 371 574 181 468 250 574 b 551 463 428 574 507 542 z m 500 881 l 642 957 l 622 971 l 483 897 b 225 990 410 957 333 990 l 225 975 b 438 875 314 975 383 940 l 217 758 l 236 746 l 449 854 b 551 490 506 772 550 617 b 342 607 506 581 413 607 b 54 296 158 607 64 460 b 326 -12 42 82 190 -12 b 661 464 564 -12 661 188 b 500 881 661 636 581 793 z "},"ñ":{"ha":675,"x_min":0,"x_max":0,"o":"m 411 790 b 661 926 411 790 585 728 l 653 929 b 447 867 619 854 492 850 l 290 928 b 42 792 290 928 118 988 l 50 789 b 257 850 89 872 211 867 z m 642 14 b 585 108 592 26 585 32 l 585 428 b 385 654 585 594 499 654 b 179 511 297 654 207 589 l 179 654 l 14 622 l 14 608 b 83 532 72 600 83 581 l 83 108 b 28 15 83 38 81 31 l 28 0 l 236 0 l 236 15 b 179 108 186 28 179 32 l 179 479 b 332 601 196 526 253 601 b 490 422 435 601 490 531 l 490 108 b 435 14 490 38 488 29 l 435 0 l 642 0 z "},"ò":{"ha":742,"x_min":0,"x_max":0,"o":"m 575 321 b 372 639 575 572 482 639 b 168 321 263 639 168 572 b 372 3 168 69 263 3 b 575 321 482 3 575 69 z m 688 321 b 372 -12 688 139 585 -12 b 57 321 161 -12 57 139 b 372 654 57 504 161 654 b 688 321 585 654 688 504 z m 299 974 l 208 947 l 529 750 l 550 750 z "},"ó":{"ha":742,"x_min":0,"x_max":0,"o":"m 575 321 b 372 3 575 69 482 3 b 168 321 263 3 168 69 b 372 639 168 572 263 639 b 575 321 482 639 575 572 z m 688 321 b 372 654 688 504 585 654 b 57 321 161 654 57 504 b 372 -12 57 139 161 -12 b 688 321 585 -12 688 139 z m 192 750 l 213 750 l 533 947 l 443 974 z "},"ô":{"ha":742,"x_min":0,"x_max":0,"o":"m 575 321 b 372 639 575 572 482 639 b 168 321 263 639 168 572 b 372 3 168 69 263 3 b 575 321 482 3 575 69 z m 688 321 b 372 -12 688 139 585 -12 b 57 321 161 -12 57 139 b 372 654 57 504 161 654 b 688 321 585 654 688 504 z m 533 718 l 557 718 l 368 979 l 179 718 l 203 718 l 368 878 z "},"õ":{"ha":742,"x_min":0,"x_max":0,"o":"m 292 850 l 447 790 b 697 926 447 790 619 728 l 688 929 b 482 867 654 854 526 850 l 326 928 b 78 792 326 928 153 988 l 86 789 b 292 850 124 872 247 867 z m 575 321 b 372 639 575 572 482 639 b 168 321 263 639 168 572 b 372 3 168 69 263 3 b 575 321 482 3 575 69 z m 688 321 b 372 -12 688 139 585 -12 b 57 321 161 -12 57 139 b 372 654 57 504 161 654 b 688 321 585 654 688 504 z "},"ö":{"ha":742,"x_min":0,"x_max":0,"o":"m 476 800 b 533 856 507 800 533 825 b 476 913 533 888 507 913 b 422 856 446 913 422 888 b 476 800 422 825 446 800 z m 275 800 b 331 856 306 800 331 825 b 275 913 331 888 306 913 b 219 856 244 913 219 888 b 275 800 219 825 244 800 z m 575 321 b 372 3 575 69 482 3 b 168 321 263 3 168 69 b 372 639 168 572 263 639 b 575 321 482 639 575 572 z m 688 321 b 372 654 688 504 585 654 b 57 321 161 654 57 504 b 372 -12 57 139 161 -12 b 688 321 585 -12 688 139 z "},"÷":{"ha":868,"x_min":0,"x_max":0,"o":"m 435 618 b 501 686 472 618 501 649 b 435 754 501 724 472 754 b 367 686 397 754 367 724 b 435 618 367 649 397 618 z m 807 349 l 807 421 l 63 421 l 63 349 z m 435 17 b 501 85 472 17 501 47 b 435 153 501 122 472 153 b 367 85 397 153 367 122 b 435 17 367 47 397 17 z "},"ø":{"ha":742,"x_min":0,"x_max":0,"o":"m 575 318 b 372 3 575 67 482 3 b 239 65 319 3 272 18 l 515 557 b 575 318 550 511 575 435 z m 125 -93 l 147 -93 l 214 24 b 372 -12 257 1 310 -12 b 688 318 585 -12 688 136 b 547 610 688 442 642 553 l 615 729 l 593 729 l 531 618 b 372 654 488 640 433 654 b 57 318 161 654 57 501 b 197 33 57 197 103 90 z m 226 82 b 168 318 190 129 168 203 b 372 639 168 569 263 639 b 503 575 425 639 469 622 z "},"ù":{"ha":696,"x_min":0,"x_max":0,"o":"m 672 25 l 672 11 l 538 -11 b 506 7 506 -18 506 7 l 506 122 b 311 -12 486 51 407 -12 b 101 196 215 -12 101 19 l 101 515 b 24 614 101 608 101 614 l 24 629 l 194 654 l 194 200 b 351 40 194 82 271 40 b 506 156 435 40 485 96 l 506 522 b 440 614 506 607 507 613 l 440 629 l 601 654 l 601 110 b 672 25 601 43 614 32 z m 276 974 l 186 947 l 507 750 l 528 750 z "},"ú":{"ha":696,"x_min":0,"x_max":0,"o":""},"û":{"ha":696,"x_min":0,"x_max":0,"o":"m 672 25 l 672 11 l 538 -11 b 506 7 506 -18 506 7 l 506 122 b 311 -12 486 51 407 -12 b 101 196 215 -12 101 19 l 101 515 b 24 614 101 608 101 614 l 24 629 l 194 654 l 194 200 b 351 40 194 82 271 40 b 506 156 435 40 485 96 l 506 522 b 440 614 506 607 507 613 l 440 629 l 601 654 l 601 110 b 672 25 601 43 614 32 z m 506 718 l 529 718 l 340 979 l 151 718 l 175 718 l 340 878 z "},"ü":{"ha":696,"x_min":0,"x_max":0,"o":"m 443 800 b 499 856 472 800 499 825 b 443 913 499 888 472 913 b 388 856 411 913 388 888 b 443 800 388 825 411 800 z m 240 800 b 297 856 271 800 297 825 b 240 913 297 888 271 913 b 186 856 210 913 186 888 b 240 800 186 825 210 800 z m 672 25 b 601 110 614 32 601 43 l 601 654 l 440 629 l 440 614 b 506 522 507 613 506 607 l 506 156 b 351 40 485 96 435 40 b 194 200 271 40 194 82 l 194 654 l 24 629 l 24 614 b 101 515 101 614 101 608 l 101 196 b 311 -12 101 19 215 -12 b 506 122 407 -12 486 51 l 506 7 b 538 -11 506 7 506 -18 l 672 11 z "},"ý":{"ha":738,"x_min":0,"x_max":0,"o":"m 449 642 l 449 626 b 525 407 610 629 525 407 l 421 124 l 239 518 b 283 626 239 518 185 626 l 283 642 l 15 642 l 15 626 b 118 549 38 625 88 617 b 374 -4 118 549 168 446 l 304 -194 b 258 -247 286 -243 263 -265 b 226 -210 254 -233 243 -217 b 144 -242 196 -197 158 -210 b 176 -324 131 -272 144 -310 b 247 -315 199 -335 231 -329 b 322 -200 264 -301 299 -272 l 542 401 b 715 626 618 611 657 626 l 715 642 z m 207 754 l 228 754 l 549 951 l 458 978 z "},"þ":{"ha":751,"x_min":0,"x_max":0,"o":"m 561 292 b 357 3 561 64 446 3 b 186 185 261 3 192 69 l 186 450 b 353 617 192 550 254 617 b 561 292 476 617 561 511 z m 679 315 b 389 654 679 494 589 654 b 186 549 315 654 226 618 l 186 1015 l 21 983 l 21 968 b 90 897 79 964 90 946 l 90 -262 b 35 -353 90 -333 88 -337 l 35 -368 l 243 -368 l 243 -353 b 186 -262 193 -340 186 -339 l 186 44 b 363 -12 231 10 289 -12 b 679 315 543 -12 679 103 z "},"ÿ":{"ha":738,"x_min":0,"x_max":0,"o":"m 472 800 b 528 856 503 800 528 825 b 472 913 528 888 503 913 b 418 856 442 913 418 888 b 472 800 418 825 442 800 z m 449 642 l 449 626 b 525 407 610 629 525 407 l 421 124 l 239 518 b 283 626 239 518 185 626 l 283 642 l 15 642 l 15 626 b 118 549 38 625 88 617 b 374 -4 118 549 168 446 l 304 -194 b 258 -247 286 -243 263 -265 b 226 -210 254 -233 243 -217 b 144 -242 194 -197 158 -210 b 176 -324 131 -272 144 -310 b 247 -315 199 -335 231 -329 b 322 -200 264 -301 299 -272 l 542 401 b 715 626 618 611 657 626 l 715 642 z m 271 800 b 326 856 301 800 326 825 b 271 913 326 888 301 913 b 215 856 239 913 215 888 b 271 800 215 825 239 800 z "},"Ă":{"ha":936,"x_min":0,"x_max":0,"o":""},"ă":{"ha":647,"x_min":0,"x_max":0,"o":"m 410 349 b 410 133 410 349 410 133 b 272 39 394 100 358 39 b 153 157 190 39 153 97 b 410 349 153 247 236 307 z m 569 43 b 510 126 508 43 510 126 l 510 376 b 336 654 510 542 472 654 b 211 628 336 654 269 657 b 103 525 138 588 111 544 b 111 465 94 507 97 483 b 190 456 131 439 167 436 b 200 538 215 476 221 513 b 163 558 190 550 176 556 b 224 617 154 560 164 589 b 410 442 342 669 410 585 l 410 364 b 57 132 175 303 57 264 b 214 -12 57 -12 214 -12 b 410 107 311 -12 390 38 b 517 -12 414 -17 517 -12 b 628 81 582 -12 619 39 l 614 86 b 569 43 604 43 569 43 z m 506 978 b 340 856 506 926 476 856 b 171 978 199 856 171 926 l 161 978 b 340 788 161 872 206 788 b 514 978 472 788 514 872 z "},"Ą":{"ha":936,"x_min":0,"x_max":0,"o":"m 917 15 b 804 135 876 18 849 24 b 467 978 804 135 551 774 l 457 978 l 228 346 b 19 15 115 31 81 15 l 19 0 l 314 0 l 314 15 b 239 308 133 13 181 142 l 614 308 l 664 176 b 640 15 714 60 699 15 l 640 0 l 824 0 b 679 -211 713 -44 642 -115 b 801 -268 679 -211 704 -268 b 897 -157 869 -268 897 -221 l 883 -157 b 818 -233 883 -187 861 -233 b 731 -175 818 -233 747 -239 b 854 0 717 -122 775 -36 l 917 0 z m 243 324 l 419 811 l 608 324 z "},"ą":{"ha":647,"x_min":0,"x_max":0,"o":"m 531 -233 b 443 -175 531 -233 460 -239 b 554 -6 431 -125 482 -44 b 628 81 596 8 621 47 l 614 86 b 569 43 604 43 569 43 b 510 126 508 43 510 126 l 510 376 b 336 654 510 542 472 654 b 211 628 336 654 269 657 b 103 525 138 588 111 544 b 111 465 94 507 97 483 b 190 456 131 439 167 436 b 200 538 215 476 221 513 b 163 558 190 550 176 556 b 224 617 154 560 164 589 b 410 442 342 669 410 585 l 410 364 b 57 132 175 303 57 264 b 214 -12 57 -12 214 -12 b 410 107 311 -12 390 38 b 508 -12 413 6 483 -10 b 392 -211 414 -57 358 -124 b 514 -268 392 -211 417 -268 b 610 -157 582 -268 610 -221 l 596 -157 b 531 -233 596 -187 574 -233 z m 410 133 b 272 39 394 100 358 39 b 153 157 190 39 153 97 b 410 349 153 247 236 307 z "},"Ć":{"ha":917,"x_min":0,"x_max":0,"o":"m 829 286 b 538 3 821 44 622 3 b 197 489 401 3 197 40 b 538 975 197 928 397 975 b 829 693 626 975 810 943 l 844 693 l 858 906 b 538 990 771 976 681 990 b 56 489 254 990 56 819 b 538 -12 56 164 254 -12 b 858 74 686 -12 756 6 l 844 286 z m 310 1019 l 331 1019 l 651 1217 l 561 1243 z "},"ć":{"ha":657,"x_min":0,"x_max":0,"o":"m 599 176 b 385 42 576 115 503 36 b 169 329 285 46 169 125 b 389 639 169 597 331 639 b 529 592 500 639 543 589 b 493 576 519 594 504 588 b 494 500 471 556 472 522 b 571 503 514 481 551 483 b 582 558 586 518 588 540 b 389 654 576 582 544 654 b 63 318 189 654 63 493 b 363 -12 63 93 222 -12 b 610 172 532 -12 597 104 z m 185 750 l 206 750 l 526 947 l 436 974 z "},"Č":{"ha":917,"x_min":0,"x_max":0,"o":"m 829 286 b 538 3 821 44 622 3 b 197 489 401 3 197 40 b 538 975 197 928 397 975 b 829 693 626 975 810 943 l 844 693 l 858 906 b 538 990 771 976 681 990 b 56 489 254 990 56 819 b 538 -12 56 164 254 -12 b 858 74 686 -12 756 6 l 844 286 z m 503 1121 l 338 1281 l 314 1281 l 503 1019 l 692 1281 l 668 1281 z "},"č":{"ha":657,"x_min":0,"x_max":0,"o":"m 599 176 b 385 42 576 115 503 36 b 169 329 285 46 169 125 b 389 639 169 597 331 639 b 529 592 500 639 543 589 b 493 576 519 594 504 588 b 494 500 471 556 472 522 b 571 503 514 481 551 483 b 582 558 586 518 588 540 b 389 654 576 582 544 654 b 63 318 189 654 63 493 b 363 -12 63 93 222 -12 b 610 172 532 -12 597 104 z m 365 818 l 200 978 l 176 978 l 365 717 l 554 978 l 531 978 z "},"Ď":{"ha":931,"x_min":0,"x_max":0,"o":""},"ď":{"ha":872,"x_min":0,"x_max":0,"o":"m 724 978 b 665 739 724 788 665 739 l 674 726 b 806 978 674 726 806 811 z m 708 26 b 638 96 653 24 638 28 l 638 1019 l 472 989 l 472 974 b 543 899 529 968 543 947 l 543 599 b 371 654 499 632 440 654 b 53 328 190 654 53 540 b 343 -12 53 147 143 -12 b 543 85 414 -12 501 19 l 543 14 b 582 -11 543 14 543 -18 l 708 13 z m 543 186 b 378 24 543 89 468 24 b 171 351 253 24 171 133 b 375 639 171 581 288 639 b 543 453 461 639 543 567 z "},"Đ":{"ha":935,"x_min":0,"x_max":0,"o":"m 739 488 b 332 15 739 13 488 15 l 271 15 l 271 474 l 468 474 l 468 503 l 271 503 l 271 964 l 332 964 b 739 488 493 964 739 944 z m 868 488 b 332 978 868 894 608 978 l 68 978 l 68 964 b 156 828 129 964 156 914 l 156 503 l 17 503 l 17 474 l 156 474 l 156 153 b 68 15 156 58 128 15 l 68 0 l 332 0 b 868 488 608 0 868 60 z "},"đ":{"ha":760,"x_min":0,"x_max":0,"o":"m 543 186 b 378 24 543 89 468 24 b 171 351 253 24 171 133 b 375 639 171 581 288 639 b 543 453 461 639 543 567 z m 368 772 l 543 772 l 543 599 b 371 654 499 632 440 654 b 53 328 190 654 53 540 b 343 -12 53 147 143 -12 b 543 85 414 -12 501 19 l 543 14 b 582 -11 543 14 543 -18 l 708 13 l 708 26 b 638 96 653 24 638 28 l 638 772 l 806 772 l 806 800 l 638 800 l 638 1019 l 472 989 l 472 974 b 543 899 529 968 543 947 l 543 800 l 368 800 z "},"Ę":{"ha":803,"x_min":0,"x_max":0,"o":"m 683 282 b 299 15 669 6 485 15 l 228 15 l 228 486 l 339 486 b 515 347 392 486 511 485 l 531 347 l 531 639 l 515 639 b 339 501 511 503 394 501 l 228 501 l 228 963 l 317 963 b 665 735 486 963 658 960 l 681 735 l 681 978 l 43 978 l 43 963 b 114 851 104 963 114 938 l 114 149 b 43 15 114 54 101 15 l 43 0 l 651 0 b 507 -211 540 -44 469 -115 b 629 -268 507 -211 532 -268 b 725 -157 697 -268 725 -221 l 711 -157 b 646 -233 711 -187 689 -233 b 558 -175 646 -233 575 -239 b 682 0 544 -122 603 -36 l 699 0 l 699 282 z "},"ę":{"ha":657,"x_min":0,"x_max":0,"o":"m 297 -175 b 414 -3 283 -124 339 -40 b 579 163 518 25 571 111 l 568 167 b 367 38 546 96 456 33 b 157 333 250 43 160 121 l 601 333 b 340 654 601 553 483 654 b 50 314 179 654 50 524 b 342 -12 50 119 174 -12 b 363 -11 349 -12 356 -12 b 246 -211 268 -56 211 -124 b 368 -268 246 -211 271 -268 b 464 -157 436 -268 464 -221 l 450 -157 b 385 -233 450 -187 428 -233 b 297 -175 385 -233 314 -239 z m 157 350 b 339 639 157 544 260 639 b 507 350 400 639 507 565 z "},"Ě":{"ha":803,"x_min":0,"x_max":0,"o":"m 683 282 b 299 15 669 6 485 15 l 228 15 l 228 486 l 339 486 b 515 347 392 486 511 485 l 531 347 l 531 639 l 515 639 b 339 501 511 503 394 501 l 228 501 l 228 963 l 317 963 b 665 735 486 963 658 960 l 681 735 l 681 978 l 43 978 l 43 963 b 114 851 104 963 114 938 l 114 149 b 43 15 114 54 101 15 l 43 0 l 699 0 l 699 282 z m 400 1121 l 235 1281 l 211 1281 l 400 1019 l 589 1281 l 565 1281 z "},"ě":{"ha":657,"x_min":0,"x_max":0,"o":"m 157 350 b 339 639 157 544 260 639 b 507 350 400 639 507 565 z m 568 167 b 367 38 546 96 456 33 b 157 333 250 43 160 121 l 601 333 b 340 654 601 553 483 654 b 50 314 179 654 50 524 b 342 -12 50 119 174 -12 b 579 163 494 -12 569 100 z m 329 818 l 164 978 l 140 978 l 329 717 l 518 978 l 494 978 z "},"ı":{"ha":315,"x_min":0,"x_max":0,"o":"m 263 15 b 206 108 213 28 206 32 l 206 654 l 40 622 l 40 608 b 110 533 99 600 110 581 l 110 108 b 54 15 110 38 107 31 l 54 0 l 263 0 l 263 15 z "},"Ĺ":{"ha":822,"x_min":0,"x_max":0,"o":""},"ĺ":{"ha":293,"x_min":0,"x_max":0,"o":"m 254 15 b 197 108 204 28 197 32 l 197 1019 l 32 989 l 32 974 b 101 900 90 968 101 949 l 101 108 b 46 15 101 38 99 31 l 46 0 l 254 0 z m -26 1060 l -6 1060 l 315 1257 l 225 1283 z "},"Ľ":{"ha":768,"x_min":0,"x_max":0,"o":"m 385 978 b 325 739 385 788 325 739 l 335 726 b 467 978 335 726 467 811 z m 697 301 b 292 15 685 15 515 14 l 242 15 l 242 840 b 331 964 242 940 271 964 l 331 978 l 56 978 l 56 964 b 132 849 115 964 132 933 l 132 158 b 67 15 132 64 126 15 l 67 0 l 711 0 l 711 301 z "},"ľ":{"ha":460,"x_min":0,"x_max":0,"o":"m 303 978 b 243 739 303 788 243 739 l 253 726 b 385 978 253 726 385 811 z m 254 15 b 197 108 204 28 197 32 l 197 1019 l 32 989 l 32 974 b 101 900 90 968 101 949 l 101 108 b 46 15 101 38 99 31 l 46 0 l 254 0 z "},"Ł":{"ha":842,"x_min":0,"x_max":0,"o":"m 749 301 b 344 15 749 85 663 14 l 294 15 l 294 472 l 583 635 l 583 658 l 294 497 l 294 840 b 383 964 294 940 322 964 l 383 978 l 108 978 l 108 964 b 185 849 168 964 185 935 l 185 433 l 11 336 l 11 313 l 185 410 l 185 161 b 119 15 185 67 178 15 l 119 0 l 764 0 l 764 301 z "},"ł":{"ha":378,"x_min":0,"x_max":0,"o":"m 17 360 l 140 432 l 140 108 b 85 15 140 38 138 31 l 85 0 l 293 0 l 293 15 b 236 108 243 28 236 32 l 236 489 l 350 558 l 350 582 l 236 513 l 236 1036 l 71 994 l 71 981 b 140 907 129 976 140 956 l 140 456 l 17 383 z "},"Ń":{"ha":1071,"x_min":0,"x_max":0,"o":""},"ń":{"ha":675,"x_min":0,"x_max":0,"o":"m 642 14 b 585 108 592 26 585 32 l 585 428 b 385 654 585 594 499 654 b 179 511 297 654 207 589 l 179 654 l 14 622 l 14 608 b 83 532 72 600 83 581 l 83 108 b 28 15 83 38 81 31 l 28 0 l 236 0 l 236 15 b 179 108 186 28 179 32 l 179 479 b 332 601 196 526 253 601 b 490 422 435 601 490 531 l 490 108 b 435 14 490 38 488 29 l 435 0 l 642 0 z m 174 750 l 194 750 l 515 947 l 425 974 z "},"Ň":{"ha":1071,"x_min":0,"x_max":0,"o":"m 664 978 l 664 964 b 842 636 842 964 842 829 l 842 161 l 221 978 l 6 978 l 6 964 b 171 856 42 961 82 967 l 229 779 l 229 344 b 32 15 229 157 228 15 l 32 0 l 424 0 l 424 15 b 244 344 244 15 244 160 l 244 761 l 828 0 l 857 0 l 857 636 b 1049 964 857 829 853 964 l 1049 978 z m 497 1121 l 332 1281 l 308 1281 l 497 1019 l 686 1281 l 663 1281 z "},"ň":{"ha":675,"x_min":0,"x_max":0,"o":"m 642 14 b 585 108 592 26 585 32 l 585 428 b 385 654 585 594 499 654 b 179 511 297 654 207 589 l 179 654 l 14 622 l 14 608 b 83 532 72 600 83 581 l 83 108 b 28 15 83 38 81 31 l 28 0 l 236 0 l 236 15 b 179 108 186 28 179 32 l 179 479 b 332 601 196 526 253 601 b 490 422 435 601 490 531 l 490 108 b 435 14 490 38 488 29 l 435 0 l 642 0 z m 351 818 l 186 978 l 163 978 l 351 717 l 540 978 l 517 978 z "},"Ő":{"ha":994,"x_min":0,"x_max":0,"o":"m 810 482 b 494 3 810 100 658 3 b 176 482 329 3 176 100 b 494 975 176 863 329 975 b 810 482 658 975 810 863 z m 932 482 b 494 990 932 757 800 990 b 57 482 189 990 57 757 b 494 -12 57 206 189 -12 b 932 482 800 -12 932 206 z m 538 1021 l 558 1021 l 878 1217 l 778 1244 z m 308 1021 l 329 1021 l 649 1217 l 549 1244 z "},"ő":{"ha":742,"x_min":0,"x_max":0,"o":"m 575 321 b 372 3 575 69 482 3 b 168 321 263 3 168 69 b 372 639 168 572 263 639 b 575 321 482 639 575 572 z m 688 321 b 372 654 688 504 585 654 b 57 321 161 654 57 504 b 372 -12 57 139 161 -12 b 688 321 585 -12 688 139 z m 374 751 l 394 751 l 714 947 l 614 975 z m 144 751 l 165 751 l 485 947 l 385 975 z "},"Œ":{"ha":1235,"x_min":0,"x_max":0,"o":"m 600 113 b 468 1 600 28 536 1 b 178 481 303 1 178 99 b 468 974 178 861 303 974 b 600 851 535 974 600 951 z m 1131 282 b 764 15 1117 6 949 15 l 714 15 l 714 485 l 782 485 b 944 347 835 485 940 492 l 960 347 l 960 639 l 944 639 b 782 503 940 497 839 503 l 714 503 l 714 964 l 781 964 b 1113 735 950 964 1100 961 l 1128 735 l 1128 978 l 557 978 b 468 989 522 985 508 989 b 58 481 163 989 58 756 b 468 -12 58 204 163 -12 b 560 0 510 -12 525 -8 l 1146 0 l 1146 282 z "},"œ":{"ha":1096,"x_min":0,"x_max":0,"o":"m 633 339 b 796 639 633 547 714 639 b 947 339 857 639 947 568 z m 1004 169 b 819 40 988 114 911 36 b 633 322 699 46 635 126 l 1040 322 b 796 654 1040 556 939 654 b 581 511 699 654 633 601 b 344 654 533 594 469 654 b 57 319 133 654 57 503 b 344 -12 57 138 133 -12 b 578 121 469 -12 529 40 b 799 -12 629 38 693 -12 b 1017 164 953 -12 1004 107 z m 344 639 b 519 319 450 639 519 571 b 344 3 519 68 450 3 b 168 319 238 3 168 68 b 344 639 168 571 238 639 z "},"Ŕ":{"ha":813,"x_min":0,"x_max":0,"o":""},"ŕ":{"ha":467,"x_min":0,"x_max":0,"o":"m 383 651 b 185 515 315 651 225 597 l 185 654 l 19 622 l 19 608 b 89 533 78 601 89 581 l 89 108 b 33 15 89 38 86 31 l 33 0 l 242 0 l 242 15 b 185 108 192 28 185 32 l 185 485 b 329 597 225 582 336 625 b 336 551 325 582 328 565 b 426 532 357 521 397 513 b 446 621 457 551 465 590 b 383 651 431 642 406 651 z m 67 750 l 88 750 l 408 947 l 318 974 z "},"Ř":{"ha":813,"x_min":0,"x_max":0,"o":""},"ř":{"ha":467,"x_min":0,"x_max":0,"o":"m 383 651 b 185 515 315 651 225 597 l 185 654 l 19 622 l 19 608 b 89 533 78 601 89 581 l 89 108 b 33 15 89 38 86 31 l 33 0 l 242 0 l 242 15 b 185 108 192 28 185 32 l 185 485 b 329 597 225 582 336 625 b 336 551 325 582 328 565 b 426 532 357 521 397 513 b 446 621 457 551 465 590 b 383 651 431 642 406 651 z m 224 819 l 58 979 l 35 979 l 224 718 l 413 979 l 389 979 z "},"Ś":{"ha":756,"x_min":0,"x_max":0,"o":""},"ś":{"ha":579,"x_min":0,"x_max":0,"o":"m 469 53 b 369 333 535 146 496 256 l 229 421 b 256 639 108 497 104 639 b 468 433 426 639 463 531 l 482 433 l 482 610 b 256 654 482 610 415 654 b 78 569 114 654 78 569 b 192 317 32 478 60 408 l 332 232 b 303 3 438 163 474 3 b 78 235 113 3 83 124 l 64 235 l 64 39 b 303 -12 64 39 135 -12 b 469 53 425 -12 469 53 z m 99 750 l 119 750 l 440 947 l 350 974 z "},"Ş":{"ha":756,"x_min":0,"x_max":0,"o":"m 638 101 b 499 476 694 197 686 353 l 261 632 b 332 975 38 776 182 975 b 613 692 568 975 607 861 l 629 692 l 629 925 b 332 990 629 925 515 990 b 83 882 151 990 83 882 b 233 522 -19 710 133 592 l 471 365 b 369 3 631 254 611 3 b 78 329 139 3 85 117 l 64 329 l 64 63 b 325 -11 64 63 151 -1 l 289 -119 b 440 -215 413 -90 440 -174 b 351 -301 440 -272 401 -301 b 299 -286 310 -300 294 -286 b 314 -274 304 -285 310 -282 b 301 -235 321 -260 315 -242 b 261 -249 286 -228 268 -233 b 264 -279 257 -258 258 -271 b 351 -310 269 -286 293 -310 b 492 -200 399 -310 479 -299 b 314 -89 501 -129 443 -60 l 342 -11 b 369 -12 350 -11 360 -12 b 638 101 581 -12 638 101 z "},"ş":{"ha":579,"x_min":0,"x_max":0,"o":"m 469 53 b 369 333 535 146 496 256 l 229 421 b 256 639 108 497 104 639 b 468 433 426 639 463 531 l 482 433 l 482 610 b 256 654 482 610 415 654 b 78 569 114 654 78 569 b 192 317 32 478 60 408 l 332 232 b 303 3 438 163 474 3 b 78 235 113 3 83 124 l 64 235 l 64 39 b 236 -10 64 39 117 1 l 200 -119 b 351 -215 324 -90 351 -174 b 263 -301 351 -272 313 -301 b 210 -286 221 -300 206 -286 b 225 -274 215 -285 221 -282 b 213 -235 232 -260 226 -242 b 172 -249 197 -228 179 -233 b 175 -279 168 -258 169 -271 b 263 -310 181 -286 204 -310 b 403 -200 310 -310 390 -299 b 225 -89 413 -129 354 -60 l 253 -11 b 303 -12 268 -12 285 -12 b 469 53 425 -12 469 53 z "},"Š":{"ha":756,"x_min":0,"x_max":0,"o":""},"š":{"ha":579,"x_min":0,"x_max":0,"o":"m 265 788 l 100 947 l 76 947 l 265 686 l 454 947 l 431 947 z m 469 53 b 369 333 535 146 496 256 l 229 421 b 256 639 108 497 104 639 b 468 433 426 639 463 531 l 482 433 l 482 610 b 256 654 482 610 415 654 b 78 569 114 654 78 569 b 192 317 32 478 60 408 l 332 232 b 303 3 438 163 474 3 b 78 235 113 3 83 124 l 64 235 l 64 39 b 303 -12 64 39 135 -12 b 469 53 425 -12 469 53 z "},"Ţ":{"ha":871,"x_min":0,"x_max":0,"o":"m 26 978 l 26 750 l 40 750 b 272 964 43 963 208 964 l 382 964 l 382 118 b 290 15 382 28 349 15 l 290 0 l 404 0 l 364 -119 b 515 -215 488 -90 515 -174 b 426 -301 515 -272 476 -301 b 374 -286 385 -300 369 -286 b 389 -274 379 -285 385 -282 b 376 -235 396 -260 390 -242 b 336 -249 361 -228 343 -233 b 339 -279 332 -258 333 -271 b 426 -310 344 -286 368 -310 b 567 -200 474 -310 554 -299 b 389 -89 576 -129 518 -60 l 421 0 l 579 0 l 579 15 b 488 118 521 15 488 28 l 488 964 l 597 964 b 829 750 626 964 826 963 l 844 750 l 844 978 z "},"ţ":{"ha":413,"x_min":0,"x_max":0,"o":"m 388 103 b 301 40 376 71 342 40 b 190 204 233 40 190 78 l 190 624 l 351 624 l 356 642 l 190 642 l 190 857 l 96 843 l 96 642 l 22 642 l 25 624 l 96 624 l 96 200 b 199 -7 96 65 135 10 l 161 -119 b 313 -215 285 -90 313 -174 b 224 -301 313 -272 274 -301 b 171 -286 182 -300 167 -286 b 186 -274 176 -285 182 -282 b 174 -235 193 -260 188 -242 b 133 -249 158 -228 140 -233 b 136 -279 129 -258 131 -271 b 224 -310 142 -286 165 -310 b 364 -200 271 -310 351 -299 b 186 -89 374 -129 315 -60 l 214 -10 b 251 -12 226 -11 238 -12 b 396 100 324 -12 381 40 l 388 103 z "},"Ť":{"ha":871,"x_min":0,"x_max":0,"o":"m 26 978 l 26 750 l 40 750 b 272 964 43 963 208 964 l 382 964 l 382 118 b 290 15 382 28 349 15 l 290 0 l 579 0 l 579 15 b 488 118 521 15 488 28 l 488 964 l 597 964 b 829 750 626 964 826 963 l 844 750 l 844 978 z m 435 1121 l 269 1281 l 246 1281 l 435 1019 l 624 1281 l 600 1281 z "},"ť":{"ha":415,"x_min":0,"x_max":0,"o":"m 383 104 b 299 40 372 71 339 40 b 192 204 235 40 192 78 l 192 626 l 353 626 l 356 642 l 192 642 l 192 858 l 96 846 l 96 642 l 24 642 l 26 626 l 96 626 l 96 200 b 253 -12 96 32 157 -12 b 394 99 326 -12 379 40 z m 288 978 b 228 739 288 788 228 739 l 236 726 b 368 978 236 726 368 811 z "},"Ů":{"ha":950,"x_min":0,"x_max":0,"o":""},"ů":{"ha":696,"x_min":0,"x_max":0,"o":"m 672 25 b 601 110 614 32 601 43 l 601 654 l 440 629 l 440 614 b 506 522 507 613 506 607 l 506 156 b 351 40 485 96 435 40 b 194 200 271 40 194 82 l 194 654 l 24 629 l 24 614 b 101 515 101 614 101 608 l 101 196 b 311 -12 101 19 215 -12 b 506 122 407 -12 486 51 l 506 7 b 538 -11 506 7 506 -18 l 672 11 z m 263 854 b 353 946 263 906 301 946 b 444 854 403 946 444 906 b 353 763 444 804 403 763 b 263 854 301 763 263 804 z m 224 854 b 353 725 224 783 282 725 b 482 854 425 725 482 783 b 353 983 482 925 425 983 b 224 854 282 983 224 925 z "},"Ű":{"ha":950,"x_min":0,"x_max":0,"o":""},"ű":{"ha":696,"x_min":0,"x_max":0,"o":"m 672 25 b 601 110 614 32 601 43 l 601 654 l 440 629 l 440 614 b 506 522 507 613 506 607 l 506 156 b 351 40 485 96 435 40 b 194 200 271 40 194 82 l 194 654 l 24 629 l 24 614 b 101 515 101 614 101 608 l 101 196 b 311 -12 101 19 215 -12 b 506 122 407 -12 486 51 l 506 7 b 538 -11 506 7 506 -18 l 672 11 z m 376 751 l 397 751 l 717 947 l 617 975 z m 147 751 l 168 751 l 488 947 l 388 975 z "},"Ÿ":{"ha":906,"x_min":0,"x_max":0,"o":"m 506 1146 b 561 1090 506 1115 531 1090 b 617 1146 592 1090 617 1115 b 561 1203 617 1178 592 1203 b 506 1146 531 1203 506 1178 z m 558 979 l 558 965 b 610 681 740 965 679 825 l 500 453 l 293 807 b 325 965 199 967 282 965 l 325 979 l 13 979 l 13 965 b 156 856 63 961 94 963 b 414 408 156 856 210 769 l 414 150 b 317 17 414 28 375 17 l 317 0 l 606 0 l 606 17 b 507 150 547 17 507 28 l 507 426 l 622 657 b 886 965 778 961 814 965 l 886 979 z m 304 1146 b 360 1090 304 1115 328 1090 b 415 1146 389 1090 415 1115 b 360 1203 415 1178 389 1203 b 304 1146 328 1203 304 1178 z "},"Ź":{"ha":700,"x_min":0,"x_max":0,"o":""},"ź":{"ha":551,"x_min":0,"x_max":0,"o":"m 511 642 l 56 642 l 49 458 l 65 458 b 399 628 82 608 213 628 l 40 0 l 492 0 l 504 211 l 488 211 b 165 14 469 53 374 14 z m 111 750 l 132 750 l 453 947 l 363 974 z "},"Ż":{"ha":700,"x_min":0,"x_max":0,"o":""},"ż":{"ha":551,"x_min":0,"x_max":0,"o":"m 511 642 l 56 642 l 49 458 l 65 458 b 399 628 82 608 213 628 l 40 0 l 492 0 l 504 211 l 488 211 b 165 14 469 53 374 14 z m 293 801 b 363 871 331 801 363 832 b 293 940 363 910 331 940 b 222 871 253 940 222 910 b 293 801 222 832 253 801 z "},"Ž":{"ha":700,"x_min":0,"x_max":0,"o":""},"ž":{"ha":551,"x_min":0,"x_max":0,"o":"m 283 788 l 118 947 l 94 947 l 283 686 l 472 947 l 449 947 z m 511 642 l 56 642 l 49 458 l 65 458 b 399 628 82 608 213 628 l 40 0 l 492 0 l 504 211 l 488 211 b 165 14 469 53 374 14 z "},"ƒ":{"ha":818,"x_min":0,"x_max":0,"o":"m 756 896 b 753 961 765 917 763 943 b 632 1021 743 978 706 1021 b 375 528 447 1021 408 796 l 271 528 l 269 508 l 375 508 l 286 -108 b 168 -318 286 -108 257 -318 b 110 -285 101 -318 101 -286 b 140 -257 121 -281 133 -271 b 115 -182 154 -229 142 -194 b 39 -208 88 -168 53 -179 b 43 -271 29 -228 33 -254 b 167 -332 54 -287 82 -332 b 425 136 356 -333 381 -200 l 476 508 l 617 508 l 624 528 l 478 528 l 518 815 b 632 1007 518 815 549 1007 b 688 974 692 1007 693 975 b 656 946 674 969 661 960 b 682 871 642 918 653 885 b 756 896 708 858 743 868 z "},"ˆ":{"ha":378,"x_min":0,"x_max":0,"o":"m 189 896 l 354 738 l 378 738 l 189 999 l 0 738 l 24 738 z "},"ˇ":{"ha":381,"x_min":0,"x_max":0,"o":"m 189 840 l 24 1000 l 0 1000 l 189 739 l 378 1000 l 354 1000 z "},"ˉ":{"ha":424,"x_min":0,"x_max":0,"o":"m 458 831 l 458 894 l -35 894 l -35 831 z "},"˘":{"ha":350,"x_min":0,"x_max":0,"o":"m 343 978 b 178 856 343 926 314 856 b 8 978 36 856 8 926 l -1 978 b 178 788 -1 872 43 788 b 351 978 310 788 351 872 l 343 978 z "},"˙":{"ha":358,"x_min":0,"x_max":0,"o":"m 182 828 b 251 897 219 828 251 858 b 182 967 251 936 219 967 b 111 897 142 967 111 936 b 182 828 111 858 142 828 z "},"˚":{"ha":376,"x_min":0,"x_max":0,"o":"m 101 885 b 192 976 101 936 140 976 b 283 885 242 976 283 936 b 192 793 283 835 242 793 b 101 885 140 793 101 835 z m 63 885 b 192 756 63 814 121 756 b 321 885 264 756 321 814 b 192 1014 321 956 264 1014 b 63 885 121 1014 63 956 z "},"˛":{"ha":371,"x_min":0,"x_max":0,"o":"m 204 -186 b 328 -11 190 -133 249 -47 l 328 0 b 153 -222 200 -43 113 -118 b 275 -279 153 -222 178 -279 b 371 -168 343 -279 371 -232 l 357 -168 b 292 -244 357 -199 335 -244 b 204 -186 292 -244 221 -250 z "},"˜":{"ha":572,"x_min":0,"x_max":0,"o":"m 344 796 b 594 931 344 796 518 733 l 586 935 b 381 872 553 858 425 854 l 224 932 b -25 797 224 932 51 993 l -17 794 b 190 856 22 876 144 872 z "},"˝":{"ha":696,"x_min":0,"x_max":0,"o":"m 350 774 l 371 774 l 690 969 l 590 997 z m 121 774 l 142 774 l 461 969 l 361 997 z "},"Ω":{"ha":958,"x_min":0,"x_max":0,"o":"m 858 167 b 724 89 832 101 799 89 l 571 89 b 690 236 583 142 643 186 b 846 625 807 360 846 501 b 458 1022 846 843 717 1022 b 71 625 199 1022 71 843 b 225 236 71 501 108 360 b 346 89 272 186 332 142 l 193 89 b 57 167 118 89 83 101 l 43 167 l 76 0 l 403 0 b 186 618 367 183 186 249 b 458 1007 186 969 356 1007 b 731 618 561 1007 731 969 b 514 0 731 249 549 183 l 840 0 l 874 167 z "},"μ":{"ha":690,"x_min":0,"x_max":0,"o":"m 664 25 b 593 110 606 32 593 43 l 593 654 l 432 629 l 432 614 b 497 522 499 613 497 607 l 497 156 b 343 40 476 96 426 40 b 186 185 265 40 193 78 l 186 654 l 15 629 l 15 614 b 93 515 94 611 93 608 l 93 -349 b 124 -367 93 -349 92 -374 l 257 -344 l 257 -331 b 186 -243 199 -324 186 -310 l 186 19 b 497 122 324 -60 475 28 l 497 7 b 529 -11 497 7 497 -18 l 664 11 l 664 25 z "},"π":{"ha":799,"x_min":0,"x_max":0,"o":"m 694 61 b 650 35 694 61 685 35 b 575 122 604 35 575 61 l 575 557 l 604 557 b 776 718 728 557 776 599 l 767 718 b 586 633 764 642 704 633 l 251 633 b 17 479 79 632 17 479 l 26 472 b 231 557 74 543 172 556 l 249 557 l 236 251 b 96 -49 229 125 182 18 l 103 -58 b 292 243 103 -58 282 26 l 306 557 l 492 557 l 492 88 b 603 -12 492 88 490 -12 b 707 58 661 -12 696 18 z "},"‐":{"ha":621,"x_min":0,"x_max":0,"o":"m 89 390 l 89 321 l 526 321 l 526 390 z "},"–":{"ha":779,"x_min":0,"x_max":0,"o":"m 0 381 l 0 321 l 779 321 l 779 381 z "},"—":{"ha":1465,"x_min":0,"x_max":0,"o":"m 0 381 l 0 321 l 1465 321 l 1465 381 z "},"‘":{"ha":283,"x_min":0,"x_max":0,"o":"m 206 957 b 114 868 147 926 129 896 b 108 686 78 810 69 725 b 200 686 133 661 174 660 b 199 776 225 711 224 751 b 154 796 185 789 169 793 b 213 950 132 800 113 881 l 206 957 z "},"’":{"ha":288,"x_min":0,"x_max":0,"o":"m 90 663 b 182 751 149 693 167 724 b 188 933 218 810 226 894 b 96 933 163 958 122 960 b 97 843 71 908 72 868 b 142 824 111 831 126 826 b 83 669 164 819 183 739 l 90 663 z "},"‚":{"ha":283,"x_min":0,"x_max":0,"o":"m 89 -169 b 181 -81 147 -139 165 -108 b 186 101 217 -22 225 63 b 94 101 161 126 121 128 b 96 11 69 76 71 36 b 140 -8 110 -1 125 -6 b 82 -162 163 -12 182 -93 l 89 -169 z "},"“":{"ha":532,"x_min":0,"x_max":0,"o":"m 436 963 b 344 874 378 932 360 901 b 339 692 308 815 300 731 b 431 692 364 667 404 665 b 429 782 456 717 454 757 b 385 801 415 794 400 799 b 443 956 363 806 343 886 z m 196 963 b 103 874 138 932 119 901 b 97 692 68 815 58 731 b 189 692 122 667 164 665 b 188 782 214 717 214 757 b 144 801 175 794 160 799 b 201 956 122 806 101 886 z "},"”":{"ha":525,"x_min":0,"x_max":0,"o":"m 89 674 b 181 763 147 704 165 735 b 186 944 217 821 225 906 b 94 944 161 969 121 971 b 96 854 69 919 71 879 b 140 835 110 842 125 838 b 82 681 163 831 182 750 z m 329 674 b 422 763 388 704 406 735 b 428 944 457 821 467 906 b 336 944 403 969 361 971 b 338 854 311 919 311 879 b 381 835 350 842 365 838 b 324 681 403 831 424 750 z "},"„":{"ha":525,"x_min":0,"x_max":0,"o":"m 89 -168 b 181 -79 147 -137 165 -107 b 186 103 217 -21 225 64 b 94 103 161 128 121 129 b 96 13 69 78 71 38 b 140 -7 110 0 125 -4 b 82 -161 163 -11 182 -92 z m 329 -168 b 422 -79 388 -137 406 -107 b 428 103 457 -21 467 64 b 336 103 403 128 361 129 b 338 13 311 78 311 38 b 381 -7 350 0 365 -4 b 324 -161 403 -11 424 -92 z "},"†":{"ha":519,"x_min":0,"x_max":0,"o":"m 258 896 b 314 950 289 896 314 921 b 258 1006 314 981 289 1006 b 204 950 228 1006 204 981 b 258 896 204 921 228 896 z m 143 618 b 36 628 114 638 64 657 b 36 561 18 610 18 581 b 103 563 56 543 85 543 b 117 594 113 571 115 583 b 181 564 117 601 157 594 l 186 568 b 143 618 171 594 153 611 z m 269 560 b 293 757 269 649 293 697 b 258 842 293 757 303 842 b 224 757 214 842 224 757 b 247 560 224 697 247 647 b 203 406 247 560 251 490 b 254 -368 253 81 254 -306 l 263 -368 b 315 406 263 -307 264 81 b 269 560 265 489 269 560 z m 481 628 b 375 618 453 657 403 638 b 331 568 364 610 346 594 l 336 564 b 400 594 360 594 400 601 b 414 563 401 583 404 571 b 481 561 432 543 463 543 b 481 628 500 581 500 610 z "},"‡":{"ha":592,"x_min":0,"x_max":0,"o":"m 307 496 b 335 697 307 592 335 632 b 296 788 335 697 344 788 b 260 697 247 788 260 697 b 285 496 260 632 285 590 b 207 340 285 393 228 354 b 286 188 228 329 286 289 b 260 -14 286 92 260 50 b 299 -104 260 -14 250 -104 b 336 -14 346 -104 336 -14 b 308 188 336 50 308 93 b 386 340 308 289 367 328 b 307 496 367 353 307 393 z m 450 546 b 464 511 451 535 454 521 b 538 510 483 490 517 490 b 538 582 557 531 557 563 b 422 571 506 614 453 593 b 374 517 410 563 390 546 l 381 513 b 450 546 406 546 450 554 z m 296 846 b 356 906 331 846 356 874 b 296 967 356 939 331 967 b 236 906 264 967 236 939 b 296 846 236 874 264 846 z m 299 -162 b 238 -222 264 -162 238 -190 b 299 -282 238 -256 264 -282 b 357 -222 331 -282 357 -256 b 299 -162 357 -190 331 -162 z m 129 511 b 144 546 139 521 143 535 b 213 513 144 554 188 546 l 219 517 b 171 571 203 546 183 563 b 56 582 140 593 86 614 b 56 510 36 563 36 531 b 129 511 76 490 108 490 z m 465 174 b 450 139 454 164 451 150 b 381 172 450 131 407 139 l 375 168 b 422 113 392 139 411 122 b 539 101 453 92 507 71 b 539 175 558 121 558 153 b 465 174 517 194 485 194 z m 144 139 b 129 174 143 150 139 164 b 56 175 110 194 78 194 b 56 101 36 153 36 121 b 172 113 88 71 142 92 b 219 168 183 122 203 139 l 214 172 b 144 139 188 139 144 131 z "},"•":{"ha":569,"x_min":0,"x_max":0,"o":"m 271 354 b 392 474 338 354 392 408 b 271 596 392 543 338 596 b 149 474 204 596 149 543 b 271 354 149 408 204 354 z "},"…":{"ha":868,"x_min":0,"x_max":0,"o":"m 736 53 b 671 118 736 89 706 118 b 607 53 635 118 607 89 b 671 -11 607 17 635 -11 b 736 53 706 -11 736 17 z m 490 53 b 426 118 490 89 461 118 b 363 53 390 118 363 89 b 426 -11 363 17 390 -11 b 490 53 461 -11 490 17 z m 247 53 b 182 118 247 89 218 118 b 119 53 147 118 119 89 b 182 -11 119 17 147 -11 b 247 53 218 -11 247 17 z "},"‰":{"ha":1458,"x_min":0,"x_max":0,"o":"m 96 688 b 207 928 96 885 146 928 b 319 688 267 928 319 885 b 207 458 319 492 271 458 b 96 688 147 458 96 492 z m 390 688 b 207 943 390 797 360 943 b 24 688 54 943 24 797 b 207 443 24 578 54 443 b 390 688 360 443 390 578 z m 790 50 b 678 279 729 50 678 82 b 790 518 678 476 728 518 b 901 279 850 518 901 476 b 790 50 901 82 853 50 z m 790 533 b 607 279 638 533 607 389 b 790 35 607 169 638 35 b 974 279 942 35 974 169 b 790 533 974 389 942 533 z m 149 0 l 214 0 l 847 978 l 782 978 z m 1224 50 b 1113 279 1164 50 1113 82 b 1224 518 1113 476 1163 518 b 1336 279 1283 518 1336 476 b 1224 50 1336 82 1288 50 z m 1224 533 b 1042 279 1071 533 1042 389 b 1224 35 1042 169 1071 35 b 1407 279 1376 35 1407 169 b 1224 533 1407 389 1376 533 z "},"‹":{"ha":471,"x_min":0,"x_max":0,"o":"m 390 701 l 69 369 l 390 46 l 390 72 l 165 369 l 390 674 z "},"›":{"ha":471,"x_min":0,"x_max":0,"o":"m 67 674 l 290 369 l 67 72 l 67 46 l 388 369 l 67 701 z "},"⁄":{"ha":450,"x_min":0,"x_max":0,"o":"m 635 1019 l -204 0 l -157 0 l 683 1019 z "},"€":{"ha":810,"x_min":0,"x_max":0,"o":"m 279 572 b 501 975 296 932 429 975 b 714 729 551 975 714 963 l 729 729 l 729 913 b 501 990 649 976 607 990 b 168 572 300 990 188 847 l 32 572 l 19 553 l 167 553 b 165 489 167 532 165 508 b 167 429 165 469 167 449 l 32 429 l 19 411 l 168 411 b 500 -12 186 136 300 -12 b 729 65 607 -12 638 4 l 729 249 l 714 249 b 501 3 714 14 544 3 b 278 411 431 3 294 39 l 546 411 l 557 429 l 278 429 b 276 489 278 443 276 474 b 278 553 276 506 278 539 l 568 553 l 579 572 l 279 572 z "},"ℓ":{"ha":461,"x_min":0,"x_max":0,"o":"m 217 763 b 349 965 217 1064 331 989 b 288 492 413 883 422 621 l 215 424 z m 407 138 b 314 36 381 56 340 40 b 213 233 246 25 210 113 l 214 383 l 297 461 b 360 976 439 586 451 869 b 118 743 279 1072 118 1038 l 118 365 l 31 296 l 31 258 l 118 325 l 118 285 b 282 -12 118 65 175 -12 b 419 132 346 -12 406 46 z "},"™":{"ha":901,"x_min":0,"x_max":0,"o":"m 818 653 l 818 913 b 861 963 818 954 836 963 l 861 978 l 772 978 l 657 650 l 508 978 l 410 978 l 410 963 b 472 933 425 963 453 963 l 472 728 b 397 594 472 632 458 594 l 397 579 l 550 579 l 550 594 b 488 728 496 594 488 629 l 488 908 l 638 574 l 646 574 l 772 931 l 772 653 b 732 594 772 604 756 594 l 732 579 l 864 579 l 864 594 b 818 653 840 594 818 604 z m 18 978 l 18 864 l 33 864 b 119 963 33 963 93 963 l 164 963 l 164 636 b 126 594 164 600 150 594 l 126 579 l 243 579 l 243 594 b 207 636 221 594 207 600 l 207 963 l 251 963 b 338 864 264 963 338 963 l 353 864 l 353 978 z "},"Ω":{"ha":958,"x_min":0,"x_max":0,"o":"m 858 167 b 724 89 832 101 799 89 l 571 89 b 690 236 583 142 643 186 b 846 625 807 360 846 501 b 458 1022 846 843 717 1022 b 71 625 199 1022 71 843 b 225 236 71 501 108 360 b 346 89 272 186 332 142 l 193 89 b 57 167 118 89 83 101 l 43 167 l 76 0 l 403 0 b 186 618 367 183 186 249 b 458 1007 186 969 356 1007 b 731 618 561 1007 731 969 b 514 0 731 249 549 183 l 840 0 l 874 167 z "},"℮":{"ha":1239,"x_min":0,"x_max":0,"o":"m 232 851 b 618 993 331 939 467 993 b 1010 847 771 993 910 938 l 1010 539 l 232 539 z m 618 1021 b 44 510 301 1021 44 792 b 618 0 44 228 301 0 b 1068 194 801 0 963 76 l 1031 194 b 618 28 931 92 783 28 b 232 169 467 28 331 82 l 232 510 l 1192 510 b 618 1021 1192 792 935 1021 z "},"∂":{"ha":656,"x_min":0,"x_max":0,"o":"m 297 3 b 163 294 201 3 136 54 b 368 586 188 521 292 586 b 494 472 426 586 476 538 b 297 3 465 154 392 3 z m 335 1032 b 97 894 239 1032 128 975 l 131 792 l 143 796 b 335 1017 117 908 242 1017 b 496 500 461 1017 528 899 b 328 626 469 599 376 626 b 57 310 192 626 71 469 b 297 -12 40 108 122 -12 b 597 468 488 -12 581 222 b 335 1032 618 804 554 1032 z "},"∆":{"ha":992,"x_min":0,"x_max":0,"o":"m 88 44 l 446 896 l 801 44 z m 521 1025 l 444 1000 l 46 39 l 44 36 l 53 0 l 908 0 l 929 44 z "},"∏":{"ha":839,"x_min":0,"x_max":0,"o":"m 703 825 b 786 963 703 921 718 963 l 786 978 l 44 978 l 44 963 b 132 825 114 963 132 921 l 132 60 b 44 -103 132 -47 111 -103 l 44 -118 l 315 -118 l 315 -103 b 242 60 250 -103 242 -47 l 242 819 b 315 961 242 917 249 961 l 507 961 b 590 819 575 961 590 917 l 590 60 b 507 -103 590 -47 574 -103 l 507 -118 l 786 -118 l 786 -103 b 703 60 719 -103 703 -47 l 703 825 z "},"∑":{"ha":910,"x_min":0,"x_max":0,"o":"m 183 963 l 410 963 b 808 713 614 963 769 914 l 833 713 l 807 978 l 29 978 l 386 333 l 106 -136 l 824 -136 l 861 178 l 839 178 b 383 -119 808 10 785 -119 l 163 -119 l 494 424 z "},"−":{"ha":869,"x_min":0,"x_max":0,"o":"m 807 324 l 807 389 l 67 389 l 67 324 z "},"∕":{"ha":457,"x_min":0,"x_max":0,"o":"m 636 1019 l -203 0 l -147 0 l 693 1019 z "},"∙":{"ha":331,"x_min":0,"x_max":0,"o":"m 167 356 b 225 414 199 356 225 382 b 167 472 225 446 199 472 b 108 414 133 472 108 446 b 167 356 108 382 133 356 z "},"√":{"ha":785,"x_min":0,"x_max":0,"o":"m 503 -69 l 236 558 l 63 486 l 67 474 b 200 393 119 494 169 465 l 478 -258 l 503 -249 l 753 1183 l 718 1193 z "},"∞":{"ha":1049,"x_min":0,"x_max":0,"o":"m 843 306 b 750 265 818 281 785 265 b 658 306 715 265 682 281 b 572 404 653 313 572 404 b 658 506 572 404 654 501 b 750 546 682 532 717 546 b 843 506 785 546 818 532 b 882 406 868 478 882 443 b 843 306 882 367 868 332 z m 376 306 b 282 265 350 281 318 265 b 190 306 247 265 213 281 b 150 406 164 332 151 367 b 189 506 150 443 164 479 b 282 546 214 532 247 546 b 375 506 317 546 350 532 l 461 406 z m 903 561 b 750 628 863 604 808 628 b 599 561 692 628 639 604 b 517 468 594 557 517 468 b 433 561 517 468 438 558 b 282 628 393 604 340 628 b 129 563 225 628 171 604 b 129 249 50 476 49 333 b 282 183 171 207 225 183 b 433 249 340 183 393 207 b 517 343 438 253 517 343 b 599 249 517 343 594 253 b 750 183 639 207 692 183 b 903 249 808 183 863 207 b 903 561 985 335 985 476 z "},"∫":{"ha":454,"x_min":0,"x_max":0,"o":"m 424 1050 b 417 1106 431 1067 428 1092 b 318 1146 406 1119 381 1146 b 167 618 164 1146 138 968 l 215 7 b 143 -279 244 -283 146 -279 b 100 -256 106 -279 94 -258 b 126 -231 113 -251 122 -243 b 99 -165 136 -204 125 -176 b 33 -193 72 -154 43 -167 b 42 -250 28 -211 32 -235 b 142 -292 51 -264 79 -292 b 296 235 299 -292 325 -114 l 247 847 b 318 1133 221 1133 314 1133 b 357 1113 358 1133 363 1114 b 331 1086 346 1108 336 1100 b 360 1021 319 1060 333 1032 b 424 1050 385 1011 413 1024 z "},"≈":{"ha":701,"x_min":0,"x_max":0,"o":"m 407 453 b 657 589 407 453 581 390 l 649 592 b 443 529 615 517 488 513 l 286 590 b 38 454 286 590 114 650 l 46 451 b 253 513 85 535 207 529 z m 407 207 b 657 342 407 207 581 144 l 649 346 b 443 283 615 269 488 265 l 286 343 b 38 208 286 343 114 404 l 46 206 b 253 267 85 288 207 283 z "},"≠":{"ha":732,"x_min":0,"x_max":0,"o":"m 667 489 l 667 564 l 496 564 l 571 725 l 503 757 l 411 564 l 64 564 l 64 489 l 376 489 l 285 294 l 64 294 l 64 218 l 249 218 l 179 71 l 247 39 l 332 218 l 667 218 l 667 294 l 368 294 l 460 489 z "},"≤":{"ha":739,"x_min":0,"x_max":0,"o":"m 185 479 l 665 726 l 665 811 l 78 510 l 78 449 l 665 147 l 665 229 z m 65 56 l 65 -6 l 665 -6 l 665 56 z "},"≥":{"ha":739,"x_min":0,"x_max":0,"o":"m 76 229 l 76 147 l 664 449 l 664 510 l 76 811 l 76 726 l 557 479 z m 76 56 l 76 -6 l 676 -6 l 676 56 z "},"◊":{"ha":776,"x_min":0,"x_max":0,"o":"m 622 454 l 386 -11 l 149 454 l 386 918 z m 418 1018 l 356 1018 l 67 454 l 356 -110 l 418 -110 l 707 454 z "},"":{"ha":744,"x_min":0,"x_max":0,"o":"m 568 318 b 379 3 568 39 464 3 b 189 318 293 3 189 39 b 379 639 189 600 293 639 b 568 318 464 639 568 600 z m 681 318 b 379 654 681 544 565 654 b 78 318 194 654 78 535 b 379 -12 78 96 194 -12 b 681 318 565 -12 681 93 z "},"":{"ha":606,"x_min":0,"x_max":0,"o":"m 269 122 b 164 14 269 19 221 14 l 164 0 l 467 0 l 467 14 b 364 122 418 14 364 15 l 364 654 l 333 654 l 139 547 l 144 533 b 269 503 239 594 269 578 z "},"":{"ha":642,"x_min":0,"x_max":0,"o":"m 514 153 b 422 89 486 99 467 89 l 207 88 b 503 526 396 296 540 375 b 190 622 461 696 250 661 b 108 526 119 575 110 542 b 129 478 106 510 113 489 b 203 489 151 461 185 465 b 190 560 219 511 215 543 b 151 567 178 568 163 569 b 196 613 146 565 150 590 b 388 528 261 642 349 625 b 238 151 426 429 390 308 l 100 0 l 483 0 l 528 153 z "},"":{"ha":715,"x_min":0,"x_max":0,"o":"m 108 -282 b 333 -368 136 -321 211 -368 b 651 -68 454 -368 656 -307 b 414 186 650 40 568 158 b 351 654 692 294 589 654 b 93 425 311 654 101 651 l 111 424 b 415 543 121 561 314 631 b 278 165 556 421 481 183 l 278 146 b 546 -89 478 139 539 10 b 333 -353 560 -271 475 -353 b 178 -303 222 -353 169 -304 b 215 -276 194 -300 207 -290 b 190 -190 232 -244 221 -207 b 106 -215 161 -174 121 -185 b 108 -282 94 -237 97 -265 z "},"":{"ha":779,"x_min":0,"x_max":0,"o":"m 464 -7 l 157 -7 b 138 42 115 -7 106 -7 l 464 526 z m 697 -67 l 697 -7 l 569 -7 l 569 642 l 526 644 l 58 -49 l 58 -67 l 464 -67 l 464 -224 b 367 -353 464 -347 425 -353 l 367 -368 l 667 -368 l 667 -353 b 569 -217 608 -353 569 -350 l 569 -67 z "},"":{"ha":768,"x_min":0,"x_max":0,"o":"m 696 6 b 138 236 672 188 453 324 l 181 540 l 632 540 l 657 642 l 176 642 l 103 133 b 603 -19 389 210 560 119 b 340 -353 663 -214 506 -353 b 179 -294 229 -353 165 -299 b 218 -264 196 -290 210 -282 b 186 -178 232 -232 218 -192 b 100 -210 153 -162 114 -178 b 110 -281 89 -233 96 -262 b 340 -368 124 -299 199 -368 b 696 6 513 -368 732 -262 z "},"":{"ha":758,"x_min":0,"x_max":0,"o":"m 568 310 b 375 3 568 94 479 3 b 172 389 242 3 172 136 b 392 611 172 479 249 611 b 568 310 474 611 568 532 z m 672 332 b 413 654 672 469 610 654 b 172 447 282 654 207 560 b 443 974 174 843 282 985 b 535 942 525 968 546 940 b 493 924 519 943 504 935 b 493 836 468 900 469 860 b 582 838 518 813 558 813 b 594 903 597 854 603 883 b 413 990 588 919 567 990 b 63 440 193 990 63 726 b 375 -12 63 164 140 -12 b 672 332 568 -12 672 117 z "},"":{"ha":764,"x_min":0,"x_max":0,"o":"m 104 642 l 81 469 l 96 469 b 211 550 119 526 135 550 l 657 550 b 292 -365 404 186 311 19 l 411 -365 b 675 550 411 -21 482 206 l 731 642 z "},"":{"ha":753,"x_min":0,"x_max":0,"o":"m 560 764 b 419 560 563 650 465 571 b 197 814 276 618 197 675 b 375 975 197 915 288 975 b 560 764 463 975 556 935 z m 389 -12 b 699 254 565 -12 699 67 b 438 549 699 397 576 479 b 629 767 538 575 629 686 b 375 990 629 899 542 990 b 118 757 239 990 118 910 b 306 497 118 642 161 581 b 63 226 171 450 63 346 b 389 -12 63 58 183 -12 z m 369 461 b 606 213 546 369 604 313 b 389 3 610 42 464 3 b 147 229 269 3 147 57 b 321 489 147 397 265 464 b 369 461 342 476 346 474 z "},"":{"ha":711,"x_min":0,"x_max":0,"o":"m 158 331 b 350 639 158 546 246 639 b 553 249 483 639 553 489 b 335 31 553 158 478 31 b 158 331 253 31 158 108 z m 53 307 b 313 -12 53 171 115 -12 b 553 190 443 -12 518 79 b 292 -351 553 -247 472 -364 b 189 -304 210 -347 178 -303 b 233 -285 204 -306 221 -297 b 232 -194 257 -261 257 -219 b 140 -197 206 -171 165 -171 b 126 -265 124 -214 118 -244 b 324 -368 135 -282 163 -368 b 663 199 557 -368 663 -160 b 350 654 663 475 585 654 b 53 307 157 654 53 529 z "},"":{"ha":711,"x_min":0,"x_max":0,"o":"m 374 3 l 374 426 l 467 365 b 374 3 617 261 615 15 z m 326 586 l 257 632 b 326 975 36 776 178 972 z m 494 476 l 374 556 l 374 974 b 613 693 568 963 606 847 l 625 693 l 625 926 b 374 990 625 926 531 982 l 374 1160 l 326 1160 l 326 990 b 79 882 149 989 79 882 b 229 522 -24 711 129 592 l 326 457 l 326 3 b 71 329 128 18 78 128 l 60 329 l 60 63 b 326 -12 60 63 149 -3 l 326 -182 l 374 -182 l 374 -12 b 633 101 563 -6 618 85 b 494 476 690 197 682 353 z "},"":{"ha":713,"x_min":0,"x_max":0,"o":"m 211 329 b 403 638 211 563 333 626 l 403 42 b 211 329 308 58 211 142 z m 640 178 b 429 40 618 117 546 39 l 429 639 b 571 592 540 639 585 590 b 535 576 561 592 546 588 b 536 500 513 556 514 522 b 613 503 556 481 592 483 b 624 558 628 519 629 540 b 429 654 618 582 585 654 l 429 824 l 403 824 l 403 654 b 104 318 218 640 104 485 b 403 -12 104 99 250 -8 l 403 -164 l 429 -164 l 429 -12 b 651 174 581 -3 639 107 z "},"":{"ha":711,"x_min":0,"x_max":0,"o":"m 374 3 l 374 426 l 467 365 b 374 3 617 261 615 15 z m 326 586 l 257 632 b 326 975 36 776 178 972 z m 494 476 l 374 556 l 374 974 b 613 693 568 963 606 847 l 625 693 l 625 926 b 374 990 625 926 531 982 l 374 1160 l 326 1160 l 326 990 b 79 882 149 989 79 882 b 229 522 -24 711 129 592 l 326 457 l 326 3 b 71 329 128 18 78 128 l 60 329 l 60 63 b 326 -12 60 63 149 -3 l 326 -182 l 374 -182 l 374 -12 b 633 101 563 -6 618 85 b 494 476 690 197 682 353 z "},"":{"ha":744,"x_min":0,"x_max":0,"o":"m 568 318 b 379 3 568 39 464 3 b 189 318 293 3 189 39 b 379 639 189 600 293 639 b 568 318 464 639 568 600 z m 681 318 b 379 654 681 544 565 654 b 78 318 194 654 78 535 b 379 -12 78 96 194 -12 b 681 318 565 -12 681 93 z "},"":{"ha":606,"x_min":0,"x_max":0,"o":"m 269 122 b 164 14 269 19 221 14 l 164 0 l 467 0 l 467 14 b 364 122 418 14 364 15 l 364 654 l 333 654 l 139 547 l 144 533 b 269 503 239 594 269 578 z "},"":{"ha":642,"x_min":0,"x_max":0,"o":"m 514 153 b 422 89 486 99 467 89 l 207 88 b 503 526 396 296 540 375 b 190 622 461 696 250 661 b 108 526 119 575 110 542 b 129 478 106 510 113 489 b 203 489 151 461 185 465 b 190 560 219 511 215 543 b 151 567 178 568 163 569 b 196 613 146 565 150 590 b 388 528 261 642 349 625 b 238 151 426 429 390 308 l 100 0 l 483 0 l 528 153 z "},"":{"ha":715,"x_min":0,"x_max":0,"o":"m 108 -282 b 333 -368 136 -321 211 -368 b 651 -68 454 -368 656 -307 b 414 186 650 40 568 158 b 351 654 692 294 589 654 b 93 425 311 654 101 651 l 111 424 b 415 543 121 561 314 631 b 278 165 556 421 481 183 l 278 146 b 546 -89 478 139 539 10 b 333 -353 560 -271 475 -353 b 178 -303 222 -353 169 -304 b 215 -276 194 -300 207 -290 b 190 -190 232 -244 221 -207 b 106 -215 161 -174 121 -185 b 108 -282 94 -237 97 -265 z "},"":{"ha":779,"x_min":0,"x_max":0,"o":"m 464 -7 l 157 -7 b 138 42 115 -7 106 -7 l 464 526 z m 697 -67 l 697 -7 l 569 -7 l 569 642 l 526 644 l 58 -49 l 58 -67 l 464 -67 l 464 -224 b 367 -353 464 -347 425 -353 l 367 -368 l 667 -368 l 667 -353 b 569 -217 608 -353 569 -350 l 569 -67 z "},"":{"ha":768,"x_min":0,"x_max":0,"o":"m 696 6 b 138 236 672 188 453 324 l 181 540 l 632 540 l 657 642 l 176 642 l 103 133 b 603 -19 389 210 560 119 b 340 -353 663 -214 506 -353 b 179 -294 229 -353 165 -299 b 218 -264 196 -290 210 -282 b 186 -178 232 -232 218 -192 b 100 -210 153 -162 114 -178 b 110 -281 89 -233 96 -262 b 340 -368 124 -299 199 -368 b 696 6 513 -368 732 -262 z "},"":{"ha":758,"x_min":0,"x_max":0,"o":"m 568 310 b 375 3 568 94 479 3 b 172 389 242 3 172 136 b 392 611 172 479 249 611 b 568 310 474 611 568 532 z m 672 332 b 413 654 672 469 610 654 b 172 447 282 654 207 560 b 443 974 174 843 282 985 b 535 942 525 968 546 940 b 493 924 519 943 504 935 b 493 836 468 900 469 860 b 582 838 518 813 558 813 b 594 903 597 854 603 883 b 413 990 588 919 567 990 b 63 440 193 990 63 726 b 375 -12 63 164 140 -12 b 672 332 568 -12 672 117 z "},"":{"ha":764,"x_min":0,"x_max":0,"o":"m 104 642 l 81 469 l 96 469 b 211 550 119 526 135 550 l 657 550 b 292 -365 404 186 311 19 l 411 -365 b 675 550 411 -21 482 206 l 731 642 z "},"":{"ha":753,"x_min":0,"x_max":0,"o":"m 560 764 b 419 560 563 650 465 571 b 197 814 276 618 197 675 b 375 975 197 915 288 975 b 560 764 463 975 556 935 z m 389 -12 b 699 254 565 -12 699 67 b 438 549 699 397 576 479 b 629 767 538 575 629 686 b 375 990 629 899 542 990 b 118 757 239 990 118 910 b 306 497 118 642 161 581 b 63 226 171 450 63 346 b 389 -12 63 58 183 -12 z m 369 461 b 606 213 546 369 604 313 b 389 3 610 42 464 3 b 147 229 269 3 147 57 b 321 489 147 397 265 464 b 369 461 342 476 346 474 z "},"":{"ha":711,"x_min":0,"x_max":0,"o":"m 158 331 b 350 639 158 546 246 639 b 553 249 483 639 553 489 b 335 31 553 158 478 31 b 158 331 253 31 158 108 z m 53 307 b 313 -12 53 171 115 -12 b 553 190 443 -12 518 79 b 292 -351 553 -247 472 -364 b 189 -304 210 -347 178 -303 b 233 -285 204 -306 221 -297 b 232 -194 257 -261 257 -219 b 140 -197 206 -171 165 -171 b 126 -265 124 -214 118 -244 b 324 -368 135 -282 163 -368 b 663 199 557 -368 663 -160 b 350 654 663 475 585 654 b 53 307 157 654 53 529 z "},"":{"ha":713,"x_min":0,"x_max":0,"o":"m 211 329 b 403 638 211 563 333 626 l 403 42 b 211 329 308 58 211 142 z m 640 178 b 429 40 618 117 546 39 l 429 639 b 571 592 540 639 585 590 b 535 576 561 592 546 588 b 536 500 513 556 514 522 b 613 503 556 481 592 483 b 624 558 628 519 629 540 b 429 654 618 582 585 654 l 429 824 l 403 824 l 403 654 b 104 318 218 640 104 485 b 403 -12 104 99 250 -8 l 403 -164 l 429 -164 l 429 -12 b 651 174 581 -3 639 107 z "},"ﬁ":{"ha":682,"x_min":0,"x_max":0,"o":"m 629 13 b 572 106 579 25 572 29 l 572 642 l 408 642 l 211 642 l 211 658 b 397 1021 211 1003 328 1021 b 507 946 504 1021 540 942 b 464 931 490 949 476 943 b 460 843 438 907 436 869 b 547 840 482 819 522 817 b 568 907 564 856 569 885 b 397 1035 558 1001 472 1035 b 115 650 224 1035 115 954 l 115 642 l 25 642 l 26 626 l 115 626 l 115 100 b 61 11 115 29 114 21 l 61 0 l 283 0 l 283 11 b 211 100 233 18 211 24 l 211 626 l 408 626 b 478 547 464 626 478 596 l 478 106 b 422 13 478 35 475 28 l 422 0 l 629 0 l 629 13 z "},"ﬂ":{"ha":660,"x_min":0,"x_max":0,"o":"m 644 15 b 588 106 594 28 588 29 l 588 1036 l 467 1004 b 333 1035 436 1024 394 1035 b 103 669 190 1035 103 933 l 103 642 l 13 642 l 14 626 l 103 626 l 103 100 b 49 14 103 29 101 24 l 49 0 l 271 0 l 271 14 b 199 100 222 21 199 24 l 199 626 l 344 626 l 347 642 l 199 642 l 199 656 b 372 1010 199 982 300 1015 b 492 908 442 1004 492 978 l 492 106 b 436 15 492 35 489 31 l 436 0 l 644 0 l 644 15 z "},"Ș":{"ha":756,"x_min":0,"x_max":0,"o":"m 314 -331 b 406 -242 372 -300 390 -268 b 411 -60 440 -183 450 -99 b 319 -60 386 -33 346 -33 b 321 -150 294 -85 296 -125 b 365 -169 335 -162 350 -167 b 307 -322 388 -174 407 -254 z m 638 101 b 499 476 694 197 686 353 l 261 632 b 332 975 38 776 182 975 b 613 692 568 975 607 861 l 629 692 l 629 925 b 332 990 629 925 515 990 b 83 882 151 990 83 882 b 233 522 -19 710 133 592 l 471 365 b 369 3 631 254 611 3 b 78 329 139 3 85 117 l 64 329 l 64 63 b 369 -12 64 63 165 -12 b 638 101 581 -12 638 101 z "},"ș":{"ha":579,"x_min":0,"x_max":0,"o":"m 246 -331 b 338 -242 304 -300 322 -268 b 343 -60 372 -183 382 -99 b 251 -60 318 -33 278 -33 b 253 -150 226 -85 228 -125 b 297 -169 267 -162 282 -167 b 239 -322 319 -174 339 -254 z m 469 53 b 369 333 535 146 496 256 l 229 421 b 256 639 108 497 104 639 b 468 433 426 639 463 531 l 482 433 l 482 610 b 256 654 482 610 415 654 b 78 569 114 654 78 569 b 192 317 32 478 60 408 l 332 232 b 303 3 438 163 474 3 b 78 235 113 3 83 124 l 64 235 l 64 39 b 303 -12 64 39 135 -12 b 469 53 425 -12 469 53 z "},"Ț":{"ha":871,"x_min":0,"x_max":0,"o":"m 390 -331 b 482 -242 449 -300 467 -268 b 488 -60 517 -183 526 -99 b 396 -60 463 -33 422 -33 b 397 -150 371 -85 372 -125 b 442 -169 411 -162 426 -167 b 383 -322 464 -174 483 -254 z m 26 978 l 26 750 l 40 750 b 272 964 43 963 208 964 l 382 964 l 382 118 b 290 15 382 28 349 15 l 290 0 l 579 0 l 579 15 b 488 118 521 15 488 28 l 488 964 l 597 964 b 829 750 626 964 826 963 l 844 750 l 844 978 z "},"ț":{"ha":414,"x_min":0,"x_max":0,"o":"m 185 -331 b 276 -242 243 -300 261 -268 b 282 -60 311 -183 321 -99 b 190 -60 257 -33 217 -33 b 192 -150 165 -85 167 -125 b 236 -169 206 -162 221 -167 b 178 -322 258 -174 278 -254 z m 383 104 b 299 40 372 71 339 40 b 192 204 235 40 192 78 l 192 626 l 353 626 l 356 642 l 192 642 l 192 858 l 96 846 l 96 642 l 24 642 l 26 626 l 96 626 l 96 200 b 253 -12 96 32 157 -12 b 394 99 326 -12 379 40 z "}}}
